<svg width="24" height="24" viewBox="0 0 24 24" fill="none" xmlns="http://www.w3.org/2000/svg">
<circle cx="12" cy="12" r="12" fill="#2FE3AC"/>
<path d="M17.6004 8.79951C17.6004 9.00421 17.5223 9.20901 17.366 9.36501L10.966 15.765C10.8104 15.922 10.6054 15.9995 10.4004 15.9995C10.1954 15.9995 9.99089 15.9214 9.83489 15.7651L6.63489 12.5651C6.47864 12.4095 6.40039 12.2045 6.40039 11.9995C6.40039 11.5425 6.77414 11.1995 7.20039 11.1995C7.40509 11.1995 7.60989 11.2776 7.76589 11.4339L10.4004 14.0695L16.2354 8.23451C16.3904 8.07776 16.5954 7.99951 16.8004 7.99951C17.2279 7.99951 17.6004 8.34201 17.6004 8.79951Z" fill="#111214"/>
</svg>
