<svg width="25" height="23" viewBox="0 0 25 23" fill="none" xmlns="http://www.w3.org/2000/svg">
<path d="M22.9347 4.24878H17.236V1.60096C17.236 1.30897 17.1236 1.02894 16.9236 0.822465C16.7235 0.615994 16.4522 0.5 16.1693 0.5H8.836C8.5531 0.5 8.28179 0.615994 8.08175 0.822465C7.88171 1.02894 7.76933 1.30897 7.76933 1.60096V4.24878H2.06534C1.65062 4.25023 1.25328 4.42092 0.960031 4.7236C0.666778 5.02628 0.501408 5.43639 0.500002 5.86444V20.8761C0.499293 21.3056 0.663729 21.7178 0.95721 22.0223C1.25069 22.3267 1.64923 22.4985 2.06534 22.5H22.9347C23.3508 22.4985 23.7493 22.3267 24.0428 22.0223C24.3363 21.7178 24.5007 21.3056 24.5 20.8761V5.86444C24.4986 5.43639 24.3332 5.02628 24.04 4.7236C23.7467 4.42092 23.3494 4.25023 22.9347 4.24878ZM8.5 1.60096C8.5007 1.51213 8.5352 1.42713 8.59606 1.36432C8.65692 1.3015 8.73927 1.26589 8.82533 1.26517H16.1587C16.2447 1.26589 16.3271 1.3015 16.3879 1.36432C16.4488 1.42713 16.4833 1.51213 16.484 1.60096V4.24878H8.5V1.60096ZM2.06534 5.02221H22.9347C23.1502 5.02293 23.3566 5.11161 23.509 5.26889C23.6614 5.42616 23.7473 5.63927 23.748 5.86169V11.0913H15.124V10.5215C15.124 10.4193 15.1044 10.318 15.0662 10.2236C15.028 10.1292 14.9721 10.0436 14.9017 9.97168C14.8313 9.89976 14.7477 9.84296 14.6559 9.80458C14.564 9.7662 14.4657 9.747 14.3667 9.74809H10.6333C10.4346 9.74809 10.244 9.82958 10.1035 9.97462C9.96295 10.1197 9.884 10.3164 9.884 10.5215V11.1023H1.24934V5.8727C1.24828 5.7614 1.2686 5.65099 1.30914 5.54785C1.34967 5.44472 1.40961 5.35089 1.48549 5.2718C1.56137 5.19272 1.65168 5.12994 1.75121 5.0871C1.85073 5.04426 1.9575 5.0222 2.06534 5.02221ZM14.3667 10.5215V12.4482H10.6333V10.5215H14.3667ZM22.9267 21.7156H2.06534C1.84938 21.7156 1.64223 21.6272 1.48928 21.4699C1.33632 21.3125 1.25004 21.099 1.24934 20.8761V11.8785H9.876V12.4592C9.87599 12.5615 9.89564 12.6627 9.9338 12.7571C9.97195 12.8515 10.0279 12.9371 10.0983 13.009C10.1687 13.081 10.2523 13.1378 10.3441 13.1762C10.436 13.2145 10.5343 13.2337 10.6333 13.2326H14.3667C14.5654 13.2326 14.756 13.1512 14.8965 13.0061C15.0371 12.8611 15.116 12.6643 15.116 12.4592V11.8785H23.7507V20.8761C23.7507 21.0995 23.6647 21.3137 23.5117 21.4716C23.3586 21.6296 23.1511 21.7183 22.9347 21.7183L22.9267 21.7156Z" fill="#F3FDFF" stroke="#FCFCFC"/>
</svg>
