<svg width="26" height="18" viewBox="0 0 26 18" fill="none" xmlns="http://www.w3.org/2000/svg">
<path d="M25.1176 1.79412C25.1176 2.25319 24.9424 2.71248 24.592 3.06233L10.2391 17.4153C9.89007 17.7674 9.43033 17.9412 8.97059 17.9412C8.51085 17.9412 8.05223 17.766 7.70237 17.4156L0.525901 10.2391C0.175487 9.89007 0 9.43033 0 8.97059C0 7.9457 0.838189 7.17647 1.79412 7.17647C2.25319 7.17647 2.71248 7.35168 3.06233 7.70209L8.97059 13.6129L22.0564 0.527022C22.404 0.175487 22.8638 0 23.3235 0C24.2823 0 25.1176 0.768107 25.1176 1.79412Z" fill="#24DAFF"/>
</svg>
