<svg width="12" height="12" viewBox="0 0 12 12" fill="none" xmlns="http://www.w3.org/2000/svg">
<path d="M8 2.66699C8.73638 2.66699 9.33301 3.26362 9.33301 4V10.667C9.33283 11.4032 8.73627 12 8 12H1.33301C0.596886 11.9998 0.000175825 11.4031 0 10.667V4C0 3.26373 0.596778 2.66717 1.33301 2.66699H2.66699V1.33301C2.66717 0.596886 3.26388 0.000175889 4 0H10.667C11.4031 0.000175825 11.9998 0.596886 12 1.33301V8C12 8.73627 11.4032 9.33283 10.667 9.33301H9.33398V8H10.667V1.33301H4V2.66699H8ZM1.33301 10.667H8V4H1.33301V10.667Z" fill="#8b9ba1"/>
</svg>
