<svg width="18" height="18" viewBox="0 0 18 18" fill="none" xmlns="http://www.w3.org/2000/svg">
<path d="M16.4668 0.733337C16.7255 0.733351 16.9054 0.812537 17.0469 0.954041C17.1881 1.09545 17.2666 1.27479 17.2666 1.53314C17.2666 1.79178 17.1883 1.97173 17.0469 2.11322L10.5127 8.64642L10.1592 8.99994L10.5127 9.35345L17.0469 15.8867C17.1883 16.0282 17.2666 16.2081 17.2666 16.4667C17.2666 16.7254 17.1884 16.9053 17.0469 17.0468C16.9054 17.1883 16.7255 17.2665 16.4668 17.2665C16.2081 17.2665 16.0282 17.1883 15.8867 17.0468L9.35352 10.5126L9 10.1591L8.64648 10.5126L2.11328 17.0468C1.97179 17.1882 1.79184 17.2665 1.5332 17.2665C1.27485 17.2665 1.09551 17.188 0.954102 17.0468C0.812598 16.9053 0.733412 16.7254 0.733398 16.4667C0.733398 16.208 0.812588 16.0282 0.954102 15.8867L7.84082 8.99994L0.954102 2.11322C0.812588 1.97171 0.733398 1.79186 0.733398 1.53314C0.733438 1.27453 0.812624 1.09552 0.954102 0.954041C1.09558 0.812562 1.27459 0.733377 1.5332 0.733337C1.79192 0.733337 1.97177 0.812527 2.11328 0.954041L9 7.84076L15.8867 0.954041C16.0282 0.812527 16.2081 0.733337 16.4668 0.733337Z" fill="white" stroke="white"/>
</svg>
