<svg width="21" height="20" viewBox="0 0 21 20" fill="none" xmlns="http://www.w3.org/2000/svg">
<path d="M9.38672 17.5C9.533 17.7533 9.7434 17.9637 9.99676 18.11C10.2501 18.2563 10.5375 18.3333 10.8301 18.3333C11.1226 18.3333 11.41 18.2563 11.6633 18.11C11.9167 17.9637 12.1271 17.7533 12.2734 17.5" stroke="#1A1A1A" stroke-width="1.66667" stroke-linecap="round" stroke-linejoin="round"/>
<path d="M3.54878 12.7717C3.43992 12.891 3.36807 13.0394 3.34199 13.1988C3.31591 13.3582 3.33671 13.5217 3.40187 13.6695C3.46702 13.8173 3.57373 13.943 3.70899 14.0312C3.84426 14.1195 4.00226 14.1665 4.16378 14.1667H17.4971C17.6586 14.1667 17.8166 14.1199 17.952 14.0318C18.0874 13.9437 18.1942 13.8181 18.2595 13.6704C18.3248 13.5227 18.3459 13.3592 18.32 13.1998C18.2941 13.0404 18.2225 12.892 18.1138 12.7725C17.0054 11.63 15.8304 10.4158 15.8304 6.66667C15.8304 5.34058 15.3037 4.06881 14.366 3.13113C13.4283 2.19345 12.1565 1.66667 10.8304 1.66667C9.50436 1.66667 8.23259 2.19345 7.29491 3.13113C6.35723 4.06881 5.83045 5.34058 5.83045 6.66667C5.83045 10.4158 4.65461 11.63 3.54878 12.7717Z" stroke="#1A1A1A" stroke-width="1.66667" stroke-linecap="round" stroke-linejoin="round"/>
</svg>
