<svg width="15" height="15" viewBox="0 0 15 15" fill="none" xmlns="http://www.w3.org/2000/svg">
<path d="M7.34339 1.53C7.3726 1.47097 7.41773 1.42129 7.47369 1.38655C7.52964 1.35181 7.59419 1.3334 7.66005 1.3334C7.72591 1.3334 7.79046 1.35181 7.84642 1.38655C7.90237 1.42129 7.94751 1.47097 7.97672 1.53L9.51672 4.64933C9.61817 4.85465 9.76793 5.03227 9.95314 5.16697C10.1383 5.30167 10.3535 5.38941 10.5801 5.42267L14.0241 5.92667C14.0893 5.93612 14.1506 5.96365 14.201 6.00613C14.2515 6.04862 14.289 6.10437 14.3094 6.16707C14.3298 6.22978 14.3322 6.29694 14.3164 6.36096C14.3007 6.42498 14.2673 6.4833 14.2201 6.52933L11.7294 8.95467C11.5651 9.11473 11.4422 9.31232 11.3713 9.53042C11.3003 9.74852 11.2834 9.98059 11.3221 10.2067L11.9101 13.6333C11.9216 13.6986 11.9145 13.7657 11.8897 13.8271C11.8649 13.8885 11.8233 13.9417 11.7698 13.9807C11.7162 14.0196 11.6527 14.0427 11.5866 14.0473C11.5206 14.0519 11.4545 14.0378 11.3961 14.0067L8.31739 12.388C8.11453 12.2815 7.88884 12.2258 7.65972 12.2258C7.4306 12.2258 7.20491 12.2815 7.00205 12.388L3.92405 14.0067C3.86561 14.0376 3.79965 14.0515 3.73369 14.0468C3.66772 14.0421 3.6044 14.019 3.55092 13.9801C3.49744 13.9413 3.45594 13.8881 3.43116 13.8268C3.40637 13.7655 3.39929 13.6985 3.41072 13.6333L3.99805 10.2073C4.03685 9.98116 4.02004 9.74893 3.94908 9.5307C3.87812 9.31246 3.75513 9.11477 3.59072 8.95467L1.10005 6.53C1.05245 6.48402 1.01872 6.4256 1.0027 6.36138C0.986675 6.29717 0.989012 6.22975 1.00944 6.16679C1.02987 6.10384 1.06757 6.04789 1.11824 6.00532C1.16891 5.96275 1.23052 5.93527 1.29605 5.926L4.73939 5.42267C4.96623 5.38967 5.18165 5.30204 5.36711 5.16733C5.55257 5.03261 5.70252 4.85485 5.80405 4.64933L7.34339 1.53Z" stroke="#EFB100" stroke-width="1.33333" stroke-linecap="round" stroke-linejoin="round"/>
</svg>
