<svg width="21" height="26" viewBox="0 0 21 26" fill="none" xmlns="http://www.w3.org/2000/svg">
<path d="M10.5 13.8665C9.11553 13.8665 7.76216 13.4598 6.61101 12.698C5.45987 11.9362 4.56266 10.8533 4.03285 9.58646C3.50303 8.31958 3.36441 6.92554 3.63451 5.58063C3.9046 4.23571 4.57129 3.00033 5.55026 2.0307C6.52922 1.06107 7.7765 0.400743 9.13437 0.133223C10.4922 -0.134297 11.8997 0.00300404 13.1788 0.527764C14.4579 1.05252 15.5511 1.94117 16.3203 3.08134C17.0895 4.2215 17.5 5.56197 17.5 6.93323C17.5 8.77204 16.7625 10.5355 15.4498 11.8358C14.137 13.136 12.3565 13.8665 10.5 13.8665ZM10.5 1.73331C9.46165 1.73331 8.44662 2.03828 7.58326 2.60966C6.7199 3.18103 6.047 3.99315 5.64964 4.94331C5.25228 5.89347 5.14831 6.939 5.35088 7.94769C5.55345 8.95637 6.05347 9.88291 6.78769 10.6101C7.52192 11.3374 8.45738 11.8326 9.47578 12.0332C10.4942 12.2339 11.5498 12.1309 12.5091 11.7373C13.4684 11.3438 14.2883 10.6773 14.8652 9.82215C15.4421 8.96703 15.75 7.96168 15.75 6.93323C15.75 5.55413 15.1969 4.23151 14.2123 3.25633C13.2277 2.28116 11.8924 1.73331 10.5 1.73331Z" fill="#F3FDFF"/>
<path d="M16.625 26.0004H4.375C3.21468 26.0004 2.10188 25.5438 1.28141 24.7312C0.460936 23.9185 0 22.8164 0 21.6671V18.2005C2.64842e-05 18.0501 0.0395705 17.9023 0.114744 17.7716C0.189917 17.6409 0.298132 17.5319 0.42875 17.4552L4.80375 14.8552C5.00114 14.7668 5.22461 14.7541 5.43091 14.8196C5.63721 14.885 5.81168 15.0239 5.92055 15.2094C6.02943 15.3948 6.06497 15.6137 6.0203 15.8237C5.97564 16.0336 5.85394 16.2197 5.67875 16.3459L1.75 18.6945V21.6671C1.75 22.3567 2.02656 23.018 2.51884 23.5056C3.01113 23.9931 3.67881 24.2671 4.375 24.2671H16.625C17.3212 24.2671 17.9889 23.9931 18.4812 23.5056C18.9734 23.018 19.25 22.3567 19.25 21.6671V18.6945L15.3038 16.3459C15.1922 16.2959 15.0924 16.2233 15.011 16.1328C14.9295 16.0423 14.8681 15.9359 14.8308 15.8204C14.7934 15.7049 14.781 15.5829 14.7942 15.4624C14.8075 15.3418 14.8461 15.2253 14.9077 15.1205C14.9692 15.0157 15.0523 14.9248 15.1515 14.8538C15.2507 14.7827 15.3639 14.7331 15.4837 14.7081C15.6035 14.6831 15.7272 14.6832 15.847 14.7086C15.9667 14.7339 16.0797 14.7839 16.1787 14.8552L20.5537 17.4552C20.6876 17.5297 20.7993 17.6378 20.8777 17.7686C20.956 17.8995 20.9982 18.0484 21 18.2005V21.6671C21 22.8164 20.5391 23.9185 19.7186 24.7312C18.8981 25.5438 17.7853 26.0004 16.625 26.0004Z" fill="#F3FDFF"/>
</svg>
