<svg width="550" height="164" viewBox="0 0 550 164" fill="none" xmlns="http://www.w3.org/2000/svg">
<rect x="169" y="66" width="174" height="38" rx="19" fill="#23D9FE"/>
<path d="M200.004 82.9102H197.671C197.628 82.6083 197.541 82.3402 197.41 82.1058C197.278 81.8679 197.11 81.6655 196.904 81.4986C196.698 81.3317 196.46 81.2038 196.19 81.1151C195.923 81.0263 195.634 80.9819 195.322 80.9819C194.757 80.9819 194.265 81.1222 193.846 81.4027C193.427 81.6797 193.102 82.0845 192.871 82.6172C192.64 83.1463 192.525 83.7891 192.525 84.5455C192.525 85.3232 192.64 85.9766 192.871 86.5057C193.106 87.0348 193.432 87.4343 193.851 87.7042C194.27 87.9741 194.755 88.109 195.306 88.109C195.614 88.109 195.9 88.0682 196.163 87.9865C196.429 87.9048 196.666 87.7859 196.872 87.6296C197.078 87.4698 197.248 87.2763 197.383 87.049C197.521 86.8217 197.617 86.5625 197.671 86.2713L200.004 86.282C199.943 86.7827 199.792 87.2656 199.551 87.7308C199.313 88.1925 198.992 88.6062 198.587 88.9719C198.186 89.3342 197.706 89.6218 197.149 89.8349C196.595 90.0444 195.968 90.1491 195.268 90.1491C194.295 90.1491 193.425 89.929 192.658 89.4886C191.895 89.0483 191.291 88.4109 190.847 87.5763C190.407 86.7418 190.187 85.7315 190.187 84.5455C190.187 83.3558 190.41 82.3438 190.858 81.5092C191.305 80.6747 191.912 80.0391 192.679 79.6023C193.447 79.1619 194.309 78.9418 195.268 78.9418C195.9 78.9418 196.486 79.0305 197.026 79.2081C197.569 79.3857 198.051 79.6449 198.47 79.9858C198.889 80.3232 199.23 80.7369 199.492 81.2269C199.759 81.717 199.929 82.2781 200.004 82.9102ZM201.615 90V81.8182H203.815V83.2457H203.9C204.049 82.7379 204.3 82.3544 204.651 82.0952C205.003 81.8324 205.408 81.701 205.866 81.701C205.979 81.701 206.102 81.7081 206.233 81.7223C206.365 81.7365 206.48 81.756 206.58 81.7809V83.7944C206.473 83.7624 206.326 83.734 206.137 83.7092C205.949 83.6843 205.777 83.6719 205.621 83.6719C205.287 83.6719 204.989 83.7447 204.726 83.8903C204.467 84.0323 204.261 84.2312 204.108 84.4869C203.959 84.7425 203.884 85.0373 203.884 85.3711V90H201.615ZM211.101 90.1598C210.259 90.1598 209.534 89.9893 208.927 89.6484C208.324 89.304 207.858 88.8175 207.532 88.1889C207.205 87.5568 207.042 86.8093 207.042 85.9464C207.042 85.1048 207.205 84.3661 207.532 83.7305C207.858 83.0948 208.318 82.5994 208.911 82.2443C209.508 81.8892 210.207 81.7116 211.01 81.7116C211.55 81.7116 212.052 81.7987 212.517 81.9727C212.986 82.1431 213.395 82.4006 213.743 82.745C214.094 83.0895 214.368 83.5227 214.563 84.0447C214.758 84.5632 214.856 85.1705 214.856 85.8665V86.4897H207.947V85.0835H212.72C212.72 84.7567 212.649 84.4673 212.507 84.2152C212.365 83.9631 212.168 83.766 211.916 83.6239C211.667 83.4783 211.378 83.4055 211.047 83.4055C210.703 83.4055 210.397 83.4854 210.131 83.6452C209.868 83.8015 209.662 84.0128 209.513 84.2791C209.364 84.5419 209.288 84.8349 209.284 85.158V86.495C209.284 86.8999 209.359 87.2496 209.508 87.5444C209.661 87.8391 209.875 88.0664 210.152 88.2262C210.429 88.386 210.758 88.4659 211.138 88.4659C211.39 88.4659 211.621 88.4304 211.83 88.3594C212.04 88.2884 212.219 88.1818 212.368 88.0398C212.517 87.8977 212.631 87.7237 212.709 87.5178L214.808 87.6562C214.701 88.1605 214.483 88.6009 214.153 88.9773C213.826 89.3501 213.403 89.6413 212.885 89.8509C212.37 90.0568 211.775 90.1598 211.101 90.1598ZM218.67 90.1545C218.148 90.1545 217.683 90.0639 217.274 89.8828C216.866 89.6982 216.543 89.4265 216.305 89.0678C216.07 88.7056 215.953 88.2546 215.953 87.7148C215.953 87.2603 216.037 86.8786 216.204 86.5696C216.37 86.2607 216.598 86.0121 216.885 85.8239C217.173 85.6357 217.5 85.4936 217.865 85.3977C218.235 85.3018 218.622 85.2344 219.027 85.1953C219.503 85.1456 219.886 85.0994 220.177 85.0568C220.468 85.0107 220.68 84.9432 220.811 84.8544C220.943 84.7656 221.008 84.6342 221.008 84.4602V84.4283C221.008 84.0909 220.902 83.8299 220.689 83.6452C220.479 83.4606 220.181 83.3683 219.794 83.3683C219.385 83.3683 219.06 83.4588 218.819 83.6399C218.577 83.8175 218.418 84.0412 218.34 84.3111L216.241 84.1406C216.347 83.6435 216.557 83.2138 216.869 82.8516C217.182 82.4858 217.585 82.2053 218.079 82.0099C218.576 81.8111 219.151 81.7116 219.804 81.7116C220.259 81.7116 220.694 81.7649 221.109 81.8714C221.528 81.978 221.9 82.1431 222.223 82.3668C222.549 82.5906 222.807 82.8782 222.995 83.2298C223.183 83.5778 223.277 83.995 223.277 84.4815V90H221.125V88.8654H221.061C220.93 89.1211 220.754 89.3466 220.534 89.5419C220.314 89.7337 220.049 89.8846 219.74 89.9947C219.432 90.1012 219.075 90.1545 218.67 90.1545ZM219.32 88.5884C219.653 88.5884 219.948 88.5227 220.204 88.3913C220.46 88.2564 220.66 88.0753 220.806 87.848C220.951 87.6207 221.024 87.3633 221.024 87.0756V86.2074C220.953 86.2536 220.856 86.2962 220.731 86.3352C220.61 86.3707 220.474 86.4045 220.321 86.4364C220.168 86.4648 220.016 86.4915 219.863 86.5163C219.71 86.5376 219.572 86.5572 219.447 86.5749C219.181 86.614 218.949 86.6761 218.75 86.7614C218.551 86.8466 218.396 86.962 218.286 87.1076C218.176 87.2496 218.121 87.4272 218.121 87.6403C218.121 87.9492 218.233 88.1854 218.457 88.3487C218.684 88.5085 218.972 88.5884 219.32 88.5884ZM229.39 81.8182V83.5227H224.463V81.8182H229.39ZM225.581 79.858H227.85V87.4858C227.85 87.6953 227.882 87.8587 227.946 87.9759C228.01 88.0895 228.099 88.1694 228.213 88.2156C228.33 88.2617 228.465 88.2848 228.617 88.2848C228.724 88.2848 228.83 88.2759 228.937 88.2582C229.044 88.2369 229.125 88.2209 229.182 88.2102L229.539 89.8988C229.425 89.9343 229.265 89.9751 229.06 90.0213C228.854 90.071 228.603 90.1012 228.308 90.1119C227.762 90.1332 227.282 90.0604 226.87 89.8935C226.462 89.7266 226.144 89.4673 225.917 89.1158C225.689 88.7642 225.578 88.3203 225.581 87.7841V79.858ZM234.509 90.1598C233.667 90.1598 232.943 89.9893 232.335 89.6484C231.732 89.304 231.267 88.8175 230.94 88.1889C230.613 87.5568 230.45 86.8093 230.45 85.9464C230.45 85.1048 230.613 84.3661 230.94 83.7305C231.267 83.0948 231.726 82.5994 232.319 82.2443C232.916 81.8892 233.616 81.7116 234.418 81.7116C234.958 81.7116 235.46 81.7987 235.926 81.9727C236.394 82.1431 236.803 82.4006 237.151 82.745C237.502 83.0895 237.776 83.5227 237.971 84.0447C238.166 84.5632 238.264 85.1705 238.264 85.8665V86.4897H231.355V85.0835H236.128C236.128 84.7567 236.057 84.4673 235.915 84.2152C235.773 83.9631 235.576 83.766 235.324 83.6239C235.075 83.4783 234.786 83.4055 234.455 83.4055C234.111 83.4055 233.806 83.4854 233.539 83.6452C233.277 83.8015 233.071 84.0128 232.921 84.2791C232.772 84.5419 232.696 84.8349 232.692 85.158V86.495C232.692 86.8999 232.767 87.2496 232.916 87.5444C233.069 87.8391 233.284 88.0664 233.561 88.2262C233.838 88.386 234.166 88.4659 234.546 88.4659C234.798 88.4659 235.029 88.4304 235.239 88.3594C235.448 88.2884 235.627 88.1818 235.777 88.0398C235.926 87.8977 236.039 87.7237 236.117 87.5178L238.216 87.6562C238.11 88.1605 237.891 88.6009 237.561 88.9773C237.234 89.3501 236.812 89.6413 236.293 89.8509C235.778 90.0568 235.183 90.1598 234.509 90.1598ZM252.885 82.9102H250.551C250.509 82.6083 250.422 82.3402 250.29 82.1058C250.159 81.8679 249.99 81.6655 249.784 81.4986C249.578 81.3317 249.341 81.2038 249.071 81.1151C248.804 81.0263 248.515 80.9819 248.202 80.9819C247.638 80.9819 247.146 81.1222 246.727 81.4027C246.308 81.6797 245.983 82.0845 245.752 82.6172C245.521 83.1463 245.406 83.7891 245.406 84.5455C245.406 85.3232 245.521 85.9766 245.752 86.5057C245.986 87.0348 246.313 87.4343 246.732 87.7042C247.151 87.9741 247.636 88.109 248.186 88.109C248.495 88.109 248.781 88.0682 249.044 87.9865C249.31 87.9048 249.546 87.7859 249.752 87.6296C249.958 87.4698 250.129 87.2763 250.264 87.049C250.402 86.8217 250.498 86.5625 250.551 86.2713L252.885 86.282C252.824 86.7827 252.673 87.2656 252.432 87.7308C252.194 88.1925 251.872 88.6062 251.468 88.9719C251.066 89.3342 250.587 89.6218 250.029 89.8349C249.475 90.0444 248.849 90.1491 248.149 90.1491C247.176 90.1491 246.306 89.929 245.539 89.4886C244.776 89.0483 244.172 88.4109 243.728 87.5763C243.288 86.7418 243.067 85.7315 243.067 84.5455C243.067 83.3558 243.291 82.3438 243.739 81.5092C244.186 80.6747 244.793 80.0391 245.56 79.6023C246.327 79.1619 247.19 78.9418 248.149 78.9418C248.781 78.9418 249.367 79.0305 249.907 79.2081C250.45 79.3857 250.931 79.6449 251.35 79.9858C251.769 80.3232 252.11 80.7369 252.373 81.2269C252.64 81.717 252.81 82.2781 252.885 82.9102ZM258.193 90.1598C257.365 90.1598 256.65 89.984 256.046 89.6325C255.446 89.2773 254.982 88.7837 254.656 88.1516C254.329 87.516 254.166 86.7791 254.166 85.9411C254.166 85.0959 254.329 84.3572 254.656 83.7251C254.982 83.0895 255.446 82.5959 256.046 82.2443C256.65 81.8892 257.365 81.7116 258.193 81.7116C259.02 81.7116 259.734 81.8892 260.334 82.2443C260.938 82.5959 261.403 83.0895 261.73 83.7251C262.056 84.3572 262.22 85.0959 262.22 85.9411C262.22 86.7791 262.056 87.516 261.73 88.1516C261.403 88.7837 260.938 89.2773 260.334 89.6325C259.734 89.984 259.02 90.1598 258.193 90.1598ZM258.203 88.402C258.58 88.402 258.894 88.2955 259.146 88.0824C259.398 87.8658 259.588 87.571 259.716 87.1982C259.847 86.8253 259.913 86.4009 259.913 85.9251C259.913 85.4492 259.847 85.0249 259.716 84.652C259.588 84.2791 259.398 83.9844 259.146 83.7678C258.894 83.5511 258.58 83.4428 258.203 83.4428C257.823 83.4428 257.504 83.5511 257.244 83.7678C256.989 83.9844 256.795 84.2791 256.664 84.652C256.536 85.0249 256.472 85.4492 256.472 85.9251C256.472 86.4009 256.536 86.8253 256.664 87.1982C256.795 87.571 256.989 87.8658 257.244 88.0824C257.504 88.2955 257.823 88.402 258.203 88.402ZM263.695 93.0682V81.8182H265.932V83.1925H266.034C266.133 82.9723 266.277 82.7486 266.465 82.5213C266.657 82.2905 266.905 82.0987 267.211 81.946C267.52 81.7898 267.903 81.7116 268.361 81.7116C268.958 81.7116 269.508 81.8679 270.013 82.1804C270.517 82.4893 270.92 82.9563 271.222 83.5813C271.524 84.2028 271.674 84.9822 271.674 85.9197C271.674 86.8324 271.527 87.603 271.232 88.2315C270.941 88.8565 270.543 89.3306 270.039 89.6538C269.538 89.9734 268.977 90.1332 268.356 90.1332C267.916 90.1332 267.541 90.0604 267.232 89.9148C266.927 89.7692 266.676 89.5863 266.481 89.3661C266.286 89.1424 266.136 88.9169 266.034 88.6896H265.964V93.0682H263.695ZM265.916 85.9091C265.916 86.3956 265.984 86.82 266.119 87.1822C266.254 87.5444 266.449 87.8267 266.705 88.0291C266.96 88.228 267.271 88.3274 267.637 88.3274C268.006 88.3274 268.319 88.2262 268.574 88.0238C268.83 87.8178 269.024 87.5337 269.155 87.1715C269.29 86.8058 269.357 86.3849 269.357 85.9091C269.357 85.4368 269.292 85.0213 269.16 84.6626C269.029 84.304 268.835 84.0234 268.58 83.821C268.324 83.6186 268.01 83.5174 267.637 83.5174C267.268 83.5174 266.955 83.6151 266.699 83.8104C266.447 84.0057 266.254 84.2827 266.119 84.6413C265.984 85 265.916 85.4226 265.916 85.9091ZM274.325 93.0682C274.037 93.0682 273.767 93.0451 273.515 92.9989C273.266 92.9563 273.06 92.9013 272.897 92.8338L273.408 91.1399C273.675 91.2216 273.914 91.266 274.127 91.2731C274.344 91.2802 274.53 91.2305 274.687 91.1239C274.847 91.0174 274.976 90.8363 275.076 90.5806L275.209 90.2344L272.274 81.8182H274.66L276.354 87.8267H276.439L278.149 81.8182H280.551L277.371 90.8842C277.219 91.3246 277.011 91.7081 276.748 92.0348C276.489 92.3651 276.16 92.619 275.763 92.7965C275.365 92.9776 274.886 93.0682 274.325 93.0682ZM280.827 80.9925V79.0909H289.787V80.9925H286.447V90H284.167V80.9925H280.827ZM290.37 90V81.8182H292.57V83.2457H292.655C292.804 82.7379 293.055 82.3544 293.406 82.0952C293.758 81.8324 294.163 81.701 294.621 81.701C294.734 81.701 294.857 81.7081 294.988 81.7223C295.12 81.7365 295.235 81.756 295.334 81.7809V83.7944C295.228 83.7624 295.08 83.734 294.892 83.7092C294.704 83.6843 294.532 83.6719 294.376 83.6719C294.042 83.6719 293.743 83.7447 293.481 83.8903C293.221 84.0323 293.015 84.2312 292.863 84.4869C292.714 84.7425 292.639 85.0373 292.639 85.3711V90H290.37ZM298.606 90.1545C298.084 90.1545 297.619 90.0639 297.211 89.8828C296.802 89.6982 296.479 89.4265 296.241 89.0678C296.007 88.7056 295.89 88.2546 295.89 87.7148C295.89 87.2603 295.973 86.8786 296.14 86.5696C296.307 86.2607 296.534 86.0121 296.822 85.8239C297.11 85.6357 297.436 85.4936 297.802 85.3977C298.171 85.3018 298.558 85.2344 298.963 85.1953C299.439 85.1456 299.823 85.0994 300.114 85.0568C300.405 85.0107 300.616 84.9432 300.748 84.8544C300.879 84.7656 300.945 84.6342 300.945 84.4602V84.4283C300.945 84.0909 300.838 83.8299 300.625 83.6452C300.416 83.4606 300.117 83.3683 299.73 83.3683C299.322 83.3683 298.997 83.4588 298.755 83.6399C298.514 83.8175 298.354 84.0412 298.276 84.3111L296.177 84.1406C296.284 83.6435 296.493 83.2138 296.806 82.8516C297.118 82.4858 297.521 82.2053 298.015 82.0099C298.512 81.8111 299.087 81.7116 299.741 81.7116C300.195 81.7116 300.63 81.7649 301.046 81.8714C301.465 81.978 301.836 82.1431 302.159 82.3668C302.486 82.5906 302.743 82.8782 302.932 83.2298C303.12 83.5778 303.214 83.995 303.214 84.4815V90H301.062V88.8654H300.998C300.867 89.1211 300.691 89.3466 300.471 89.5419C300.25 89.7337 299.986 89.8846 299.677 89.9947C299.368 90.1012 299.011 90.1545 298.606 90.1545ZM299.256 88.5884C299.59 88.5884 299.885 88.5227 300.14 88.3913C300.396 88.2564 300.597 88.0753 300.742 87.848C300.888 87.6207 300.961 87.3633 300.961 87.0756V86.2074C300.89 86.2536 300.792 86.2962 300.668 86.3352C300.547 86.3707 300.41 86.4045 300.258 86.4364C300.105 86.4648 299.952 86.4915 299.799 86.5163C299.647 86.5376 299.508 86.5572 299.384 86.5749C299.118 86.614 298.885 86.6761 298.686 86.7614C298.487 86.8466 298.333 86.962 298.223 87.1076C298.113 87.2496 298.058 87.4272 298.058 87.6403C298.058 87.9492 298.17 88.1854 298.393 88.3487C298.621 88.5085 298.908 88.5884 299.256 88.5884ZM307.989 90.1332C307.368 90.1332 306.805 89.9734 306.301 89.6538C305.8 89.3306 305.402 88.8565 305.108 88.2315C304.816 87.603 304.671 86.8324 304.671 85.9197C304.671 84.9822 304.822 84.2028 305.124 83.5813C305.425 82.9563 305.827 82.4893 306.327 82.1804C306.832 81.8679 307.384 81.7116 307.984 81.7116C308.442 81.7116 308.824 81.7898 309.129 81.946C309.438 82.0987 309.687 82.2905 309.875 82.5213C310.067 82.7486 310.212 82.9723 310.312 83.1925H310.381V79.0909H312.645V90H310.408V88.6896H310.312C310.205 88.9169 310.054 89.1424 309.859 89.3661C309.667 89.5863 309.417 89.7692 309.108 89.9148C308.803 90.0604 308.43 90.1332 307.989 90.1332ZM308.708 88.3274C309.074 88.3274 309.383 88.228 309.635 88.0291C309.891 87.8267 310.086 87.5444 310.221 87.1822C310.36 86.82 310.429 86.3956 310.429 85.9091C310.429 85.4226 310.361 85 310.227 84.6413C310.092 84.2827 309.896 84.0057 309.641 83.8104C309.385 83.6151 309.074 83.5174 308.708 83.5174C308.336 83.5174 308.021 83.6186 307.766 83.821C307.51 84.0234 307.316 84.304 307.185 84.6626C307.054 85.0213 306.988 85.4368 306.988 85.9091C306.988 86.3849 307.054 86.8058 307.185 87.1715C307.32 87.5337 307.513 87.8178 307.766 88.0238C308.021 88.2262 308.336 88.3274 308.708 88.3274ZM318.239 90.1598C317.398 90.1598 316.673 89.9893 316.066 89.6484C315.462 89.304 314.997 88.8175 314.67 88.1889C314.344 87.5568 314.18 86.8093 314.18 85.9464C314.18 85.1048 314.344 84.3661 314.67 83.7305C314.997 83.0948 315.457 82.5994 316.05 82.2443C316.647 81.8892 317.346 81.7116 318.149 81.7116C318.688 81.7116 319.191 81.7987 319.656 81.9727C320.125 82.1431 320.533 82.4006 320.881 82.745C321.233 83.0895 321.506 83.5227 321.702 84.0447C321.897 84.5632 321.995 85.1705 321.995 85.8665V86.4897H315.086V85.0835H319.859C319.859 84.7567 319.788 84.4673 319.645 84.2152C319.503 83.9631 319.306 83.766 319.054 83.6239C318.806 83.4783 318.516 83.4055 318.186 83.4055C317.841 83.4055 317.536 83.4854 317.27 83.6452C317.007 83.8015 316.801 84.0128 316.652 84.2791C316.503 84.5419 316.426 84.8349 316.423 85.158V86.495C316.423 86.8999 316.497 87.2496 316.647 87.5444C316.799 87.8391 317.014 88.0664 317.291 88.2262C317.568 88.386 317.897 88.4659 318.277 88.4659C318.529 88.4659 318.759 88.4304 318.969 88.3594C319.178 88.2884 319.358 88.1818 319.507 88.0398C319.656 87.8977 319.77 87.7237 319.848 87.5178L321.947 87.6562C321.84 88.1605 321.622 88.6009 321.291 88.9773C320.965 89.3501 320.542 89.6413 320.024 89.8509C319.509 90.0568 318.914 90.1598 318.239 90.1598Z" fill="#0C313F"/>
<rect x="0.5" y="0.5" width="307" height="37" rx="9.5" stroke="#6E6E6E"/>
<path d="M20.7244 14.2628V13.0909H28.9062V14.2628H25.4759V24H24.1548V14.2628H20.7244ZM29.925 24V15.8182H31.1395V17.054H31.2247C31.3738 16.6491 31.6437 16.3207 32.0344 16.0685C32.425 15.8164 32.8653 15.6903 33.3554 15.6903C33.4477 15.6903 33.5631 15.6921 33.7016 15.6957C33.8401 15.6992 33.9449 15.7045 34.0159 15.7116V16.9901C33.9733 16.9794 33.8756 16.9634 33.7229 16.9421C33.5738 16.9173 33.4157 16.9048 33.2488 16.9048C32.8511 16.9048 32.496 16.9883 32.1835 17.1552C31.8746 17.3185 31.6295 17.5458 31.4484 17.837C31.2709 18.1246 31.1821 18.4531 31.1821 18.8224V24H29.925ZM37.9137 24.1918C37.3952 24.1918 36.9247 24.0941 36.5021 23.8988C36.0795 23.6999 35.744 23.4141 35.4954 23.0412C35.2468 22.6648 35.1225 22.2102 35.1225 21.6776C35.1225 21.2088 35.2148 20.8288 35.3995 20.5376C35.5842 20.2429 35.831 20.0121 36.1399 19.8452C36.4489 19.6783 36.7898 19.554 37.1626 19.4723C37.5391 19.3871 37.9173 19.3196 38.2972 19.2699C38.7944 19.206 39.1974 19.158 39.5064 19.1261C39.8189 19.0906 40.0462 19.032 40.1882 18.9503C40.3338 18.8686 40.4066 18.7266 40.4066 18.5241V18.4815C40.4066 17.956 40.2628 17.5476 39.9751 17.2564C39.6911 16.9652 39.2596 16.8196 38.6808 16.8196C38.0806 16.8196 37.6101 16.951 37.2692 17.2138C36.9283 17.4766 36.6886 17.7571 36.5501 18.0554L35.3569 17.6293C35.57 17.1321 35.854 16.745 36.2092 16.468C36.5678 16.1875 36.9585 15.9922 37.381 15.8821C37.8072 15.7685 38.2262 15.7116 38.6381 15.7116C38.9009 15.7116 39.2028 15.7436 39.5437 15.8075C39.8881 15.8679 40.2202 15.994 40.5398 16.1857C40.8629 16.3775 41.131 16.6669 41.3441 17.054C41.5572 17.4411 41.6637 17.9595 41.6637 18.6094V24H40.4066V22.892H40.3427C40.2575 23.0696 40.1154 23.2596 39.9165 23.462C39.7177 23.6644 39.4531 23.8366 39.1229 23.9787C38.7926 24.1207 38.3896 24.1918 37.9137 24.1918ZM38.1055 23.0625C38.6026 23.0625 39.0217 22.9648 39.3626 22.7695C39.707 22.5742 39.9663 22.3221 40.1403 22.0131C40.3178 21.7042 40.4066 21.3793 40.4066 21.0384V19.8878C40.3533 19.9517 40.2362 20.0103 40.055 20.0636C39.8775 20.1133 39.6715 20.1577 39.4371 20.1967C39.2063 20.2322 38.9808 20.2642 38.7607 20.2926C38.544 20.3175 38.3683 20.3388 38.2333 20.3565C37.9066 20.3991 37.6012 20.4684 37.3171 20.5643C37.0366 20.6566 36.8093 20.7969 36.6353 20.9851C36.4648 21.1697 36.3796 21.4219 36.3796 21.7415C36.3796 22.1783 36.5412 22.5085 36.8643 22.7322C37.1911 22.9524 37.6048 23.0625 38.1055 23.0625ZM45.2153 19.0781V24H43.9582V15.8182H45.1727V17.0966H45.2792C45.471 16.6811 45.7622 16.3473 46.1528 16.0952C46.5434 15.8395 47.0477 15.7116 47.6656 15.7116C48.2195 15.7116 48.7043 15.8253 49.1198 16.0526C49.5352 16.2763 49.8584 16.6172 50.0892 17.0753C50.32 17.5298 50.4355 18.1051 50.4355 18.8011V24H49.1784V18.8864C49.1784 18.2436 49.0115 17.7429 48.6776 17.3842C48.3438 17.022 47.8857 16.8409 47.3034 16.8409C46.9021 16.8409 46.5434 16.9279 46.2274 17.1019C45.9149 17.2759 45.6681 17.5298 45.4869 17.8636C45.3058 18.1974 45.2153 18.6023 45.2153 19.0781ZM58.5281 17.6506L57.3988 17.9702C57.3278 17.782 57.223 17.5991 57.0845 17.4215C56.9496 17.2404 56.7649 17.0913 56.5305 16.9741C56.2962 16.8569 55.9961 16.7983 55.6303 16.7983C55.1296 16.7983 54.7124 16.9137 54.3786 17.1445C54.0483 17.3718 53.8832 17.6612 53.8832 18.0128C53.8832 18.3253 53.9968 18.5721 54.2241 18.7532C54.4513 18.9343 54.8065 19.0852 55.2894 19.206L56.5039 19.5043C57.2354 19.6818 57.7805 19.9535 58.1392 20.3192C58.4979 20.6815 58.6772 21.1484 58.6772 21.7202C58.6772 22.1889 58.5423 22.608 58.2724 22.9773C58.006 23.3466 57.6332 23.6378 57.1538 23.8509C56.6744 24.0639 56.1168 24.1705 55.4812 24.1705C54.6467 24.1705 53.956 23.9893 53.4091 23.6271C52.8622 23.2649 52.516 22.7358 52.3704 22.0398L53.5636 21.7415C53.6772 22.1818 53.892 22.5121 54.2081 22.7322C54.5277 22.9524 54.945 23.0625 55.4599 23.0625C56.0458 23.0625 56.511 22.9382 56.8555 22.6896C57.2035 22.4375 57.3775 22.1357 57.3775 21.7841C57.3775 21.5 57.2781 21.2621 57.0792 21.0703C56.8803 20.875 56.5749 20.7294 56.163 20.6335L54.7994 20.3139C54.0501 20.1364 53.4996 19.8612 53.1481 19.4883C52.8001 19.1119 52.6261 18.6413 52.6261 18.0767C52.6261 17.6151 52.7557 17.2067 53.0149 16.8516C53.2777 16.4964 53.6346 16.2177 54.0856 16.0153C54.5401 15.8129 55.055 15.7116 55.6303 15.7116C56.44 15.7116 57.0756 15.8892 57.5373 16.2443C58.0025 16.5994 58.3327 17.0682 58.5281 17.6506ZM62.9772 24.1918C62.4587 24.1918 61.9882 24.0941 61.5656 23.8988C61.143 23.6999 60.8074 23.4141 60.5589 23.0412C60.3103 22.6648 60.186 22.2102 60.186 21.6776C60.186 21.2088 60.2783 20.8288 60.463 20.5376C60.6476 20.2429 60.8944 20.0121 61.2034 19.8452C61.5123 19.6783 61.8532 19.554 62.2261 19.4723C62.6025 19.3871 62.9807 19.3196 63.3607 19.2699C63.8579 19.206 64.2609 19.158 64.5699 19.1261C64.8824 19.0906 65.1096 19.032 65.2517 18.9503C65.3973 18.8686 65.4701 18.7266 65.4701 18.5241V18.4815C65.4701 17.956 65.3263 17.5476 65.0386 17.2564C64.7545 16.9652 64.3231 16.8196 63.7442 16.8196C63.1441 16.8196 62.6736 16.951 62.3327 17.2138C61.9917 17.4766 61.752 17.7571 61.6135 18.0554L60.4204 17.6293C60.6334 17.1321 60.9175 16.745 61.2726 16.468C61.6313 16.1875 62.0219 15.9922 62.4445 15.8821C62.8706 15.7685 63.2897 15.7116 63.7016 15.7116C63.9644 15.7116 64.2662 15.7436 64.6072 15.8075C64.9516 15.8679 65.2836 15.994 65.6032 16.1857C65.9264 16.3775 66.1945 16.6669 66.4076 17.054C66.6207 17.4411 66.7272 17.9595 66.7272 18.6094V24H65.4701V22.892H65.4062C65.3209 23.0696 65.1789 23.2596 64.98 23.462C64.7812 23.6644 64.5166 23.8366 64.1863 23.9787C63.8561 24.1207 63.453 24.1918 62.9772 24.1918ZM63.1689 23.0625C63.6661 23.0625 64.0851 22.9648 64.426 22.7695C64.7705 22.5742 65.0297 22.3221 65.2037 22.0131C65.3813 21.7042 65.4701 21.3793 65.4701 21.0384V19.8878C65.4168 19.9517 65.2996 20.0103 65.1185 20.0636C64.941 20.1133 64.735 20.1577 64.5006 20.1967C64.2698 20.2322 64.0443 20.2642 63.8241 20.2926C63.6075 20.3175 63.4317 20.3388 63.2968 20.3565C62.9701 20.3991 62.6647 20.4684 62.3806 20.5643C62.1001 20.6566 61.8728 20.7969 61.6988 20.9851C61.5283 21.1697 61.4431 21.4219 61.4431 21.7415C61.4431 22.1783 61.6047 22.5085 61.9278 22.7322C62.2545 22.9524 62.6682 23.0625 63.1689 23.0625ZM72.3455 24.1705C71.5785 24.1705 70.918 23.9893 70.364 23.6271C69.81 23.2649 69.3839 22.766 69.0856 22.1303C68.7873 21.4947 68.6381 20.7685 68.6381 19.9517C68.6381 19.1207 68.7908 18.3874 69.0962 17.7518C69.4052 17.1126 69.8349 16.6136 70.3853 16.255C70.9393 15.8928 71.5856 15.7116 72.3242 15.7116C72.8995 15.7116 73.418 15.8182 73.8796 16.0312C74.3413 16.2443 74.7195 16.5426 75.0142 16.9261C75.3089 17.3097 75.4918 17.7571 75.5629 18.2685H74.3058C74.2099 17.8956 73.9968 17.5653 73.6665 17.2777C73.3398 16.9865 72.8995 16.8409 72.3455 16.8409C71.8555 16.8409 71.4258 16.9687 71.0565 17.2244C70.6907 17.4766 70.4048 17.8335 70.1989 18.2951C69.9964 18.7532 69.8952 19.2912 69.8952 19.9091C69.8952 20.5412 69.9947 21.0916 70.1935 21.5604C70.396 22.0291 70.68 22.3931 71.0458 22.6523C71.4151 22.9116 71.8484 23.0412 72.3455 23.0412C72.6722 23.0412 72.9688 22.9844 73.2351 22.8707C73.5014 22.7571 73.7269 22.5938 73.9116 22.3807C74.0962 22.1676 74.2276 21.9119 74.3058 21.6136H75.5629C75.4918 22.0966 75.3161 22.5316 75.0355 22.9187C74.7585 23.3022 74.391 23.6076 73.9329 23.8349C73.4783 24.0586 72.9492 24.1705 72.3455 24.1705ZM80.9588 15.8182V16.8835H76.7188V15.8182H80.9588ZM77.9545 13.858H79.2116V21.6562C79.2116 22.0114 79.2631 22.2777 79.3661 22.4553C79.4727 22.6293 79.6076 22.7464 79.771 22.8068C79.9379 22.8636 80.1136 22.892 80.2983 22.892C80.4368 22.892 80.5504 22.8849 80.6392 22.8707C80.728 22.853 80.799 22.8388 80.8523 22.8281L81.108 23.9574C81.0227 23.9893 80.9038 24.0213 80.7511 24.0533C80.5984 24.0888 80.4048 24.1065 80.1705 24.1065C79.8153 24.1065 79.4673 24.0302 79.1264 23.8775C78.7891 23.7248 78.5085 23.4922 78.2848 23.1797C78.0646 22.8672 77.9545 22.473 77.9545 21.9972V13.858ZM82.8498 24V15.8182H84.1069V24H82.8498ZM83.489 14.4545C83.244 14.4545 83.0327 14.3711 82.8551 14.2042C82.6811 14.0373 82.5941 13.8366 82.5941 13.6023C82.5941 13.3679 82.6811 13.1673 82.8551 13.0004C83.0327 12.8335 83.244 12.75 83.489 12.75C83.734 12.75 83.9435 12.8335 84.1175 13.0004C84.2951 13.1673 84.3839 13.3679 84.3839 13.6023C84.3839 13.8366 84.2951 14.0373 84.1175 14.2042C83.9435 14.3711 83.734 14.4545 83.489 14.4545ZM89.7332 24.1705C88.9946 24.1705 88.3465 23.9947 87.789 23.6431C87.235 23.2915 86.8018 22.7997 86.4893 22.1676C86.1803 21.5355 86.0258 20.7969 86.0258 19.9517C86.0258 19.0994 86.1803 18.3555 86.4893 17.7198C86.8018 17.0842 87.235 16.5906 87.789 16.239C88.3465 15.8874 88.9946 15.7116 89.7332 15.7116C90.4719 15.7116 91.1182 15.8874 91.6721 16.239C92.2297 16.5906 92.6629 17.0842 92.9719 17.7198C93.2844 18.3555 93.4406 19.0994 93.4406 19.9517C93.4406 20.7969 93.2844 21.5355 92.9719 22.1676C92.6629 22.7997 92.2297 23.2915 91.6721 23.6431C91.1182 23.9947 90.4719 24.1705 89.7332 24.1705ZM89.7332 23.0412C90.2943 23.0412 90.7559 22.8974 91.1182 22.6097C91.4804 22.3221 91.7485 21.9439 91.9225 21.4751C92.0965 21.0064 92.1835 20.4986 92.1835 19.9517C92.1835 19.4048 92.0965 18.8952 91.9225 18.4229C91.7485 17.9506 91.4804 17.5689 91.1182 17.2777C90.7559 16.9865 90.2943 16.8409 89.7332 16.8409C89.1721 16.8409 88.7105 16.9865 88.3483 17.2777C87.9861 17.5689 87.718 17.9506 87.5439 18.4229C87.3699 18.8952 87.2829 19.4048 87.2829 19.9517C87.2829 20.4986 87.3699 21.0064 87.5439 21.4751C87.718 21.9439 87.9861 22.3221 88.3483 22.6097C88.7105 22.8974 89.1721 23.0412 89.7332 23.0412ZM96.6167 19.0781V24H95.3596V15.8182H96.574V17.0966H96.6806C96.8723 16.6811 97.1635 16.3473 97.5542 16.0952C97.9448 15.8395 98.449 15.7116 99.0669 15.7116C99.6209 15.7116 100.106 15.8253 100.521 16.0526C100.937 16.2763 101.26 16.6172 101.491 17.0753C101.721 17.5298 101.837 18.1051 101.837 18.8011V24H100.58V18.8864C100.58 18.2436 100.413 17.7429 100.079 17.3842C99.7452 17.022 99.2871 16.8409 98.7047 16.8409C98.3034 16.8409 97.9448 16.9279 97.6287 17.1019C97.3162 17.2759 97.0694 17.5298 96.8883 17.8636C96.7072 18.1974 96.6167 18.6023 96.6167 19.0781ZM112.167 13.0909V24H110.846V14.4759H110.782L108.118 16.2443V14.902L110.846 13.0909H112.167Z" fill="#FCFCFC"/>
<path d="M129.144 22.3381V14.7955H131.051V22.3381H129.144ZM126.326 19.5202V17.6133H133.869V19.5202H126.326ZM144.297 13.0909V24H141.991V15.2802H141.927L139.429 16.8462V14.8008L142.129 13.0909H144.297ZM146.89 24V22.3381L150.773 18.7425C151.104 18.4229 151.381 18.1353 151.604 17.8796C151.831 17.6239 152.004 17.3736 152.121 17.1286C152.238 16.88 152.297 16.6119 152.297 16.3242C152.297 16.0046 152.224 15.7294 152.078 15.4986C151.933 15.2642 151.734 15.0849 151.482 14.9606C151.23 14.8327 150.944 14.7688 150.624 14.7688C150.29 14.7688 149.999 14.8363 149.751 14.9712C149.502 15.1062 149.31 15.2997 149.175 15.5518C149.04 15.804 148.973 16.104 148.973 16.4521H146.784C146.784 15.7383 146.945 15.1186 147.268 14.593C147.591 14.0675 148.044 13.6609 148.627 13.3732C149.209 13.0856 149.88 12.9418 150.64 12.9418C151.421 12.9418 152.101 13.0803 152.68 13.3572C153.263 13.6307 153.715 14.0107 154.039 14.4972C154.362 14.9837 154.523 15.5412 154.523 16.1697C154.523 16.5817 154.442 16.9883 154.278 17.3896C154.118 17.7908 153.833 18.2365 153.421 18.7266C153.009 19.2131 152.428 19.7972 151.679 20.479L150.086 22.0398V22.1143H154.667V24H146.89ZM156.338 24V22.3381L160.222 18.7425C160.552 18.4229 160.829 18.1353 161.052 17.8796C161.28 17.6239 161.452 17.3736 161.569 17.1286C161.686 16.88 161.745 16.6119 161.745 16.3242C161.745 16.0046 161.672 15.7294 161.527 15.4986C161.381 15.2642 161.182 15.0849 160.93 14.9606C160.678 14.8327 160.392 14.7688 160.072 14.7688C159.739 14.7688 159.447 14.8363 159.199 14.9712C158.95 15.1062 158.758 15.2997 158.623 15.5518C158.489 15.804 158.421 16.104 158.421 16.4521H156.232C156.232 15.7383 156.393 15.1186 156.717 14.593C157.04 14.0675 157.492 13.6609 158.075 13.3732C158.657 13.0856 159.328 12.9418 160.088 12.9418C160.87 12.9418 161.55 13.0803 162.128 13.3572C162.711 13.6307 163.164 14.0107 163.487 14.4972C163.81 14.9837 163.972 15.5412 163.972 16.1697C163.972 16.5817 163.89 16.9883 163.726 17.3896C163.567 17.7908 163.281 18.2365 162.869 18.7266C162.457 19.2131 161.876 19.7972 161.127 20.479L159.534 22.0398V22.1143H164.115V24H156.338ZM165.387 22.0824V20.266L169.941 13.0909H171.507V15.6051H170.581L167.71 20.1488V20.234H174.181V22.0824H165.387ZM170.623 24V21.5284L170.666 20.7241V13.0909H172.828V24H170.623ZM176.861 24.1385C176.509 24.1385 176.207 24.0142 175.955 23.7656C175.707 23.5135 175.582 23.2116 175.582 22.8601C175.582 22.5121 175.707 22.2138 175.955 21.9652C176.207 21.7166 176.509 21.5923 176.861 21.5923C177.202 21.5923 177.5 21.7166 177.756 21.9652C178.011 22.2138 178.139 22.5121 178.139 22.8601C178.139 23.0945 178.079 23.3093 177.958 23.5046C177.841 23.6964 177.686 23.8509 177.495 23.968C177.303 24.0817 177.092 24.1385 176.861 24.1385ZM183.877 24.1491C183.125 24.1491 182.453 24.0107 181.864 23.7337C181.278 23.4567 180.813 23.0749 180.468 22.5884C180.124 22.1019 179.945 21.5444 179.93 20.9158H182.168C182.192 21.3384 182.37 21.6811 182.7 21.9439C183.03 22.2067 183.423 22.3381 183.877 22.3381C184.24 22.3381 184.559 22.2582 184.836 22.0984C185.117 21.935 185.335 21.7095 185.491 21.4219C185.651 21.1307 185.731 20.7969 185.731 20.4205C185.731 20.0369 185.649 19.6996 185.486 19.4084C185.326 19.1172 185.104 18.8899 184.82 18.7266C184.536 18.5632 184.211 18.4798 183.845 18.4762C183.526 18.4762 183.215 18.5419 182.913 18.6733C182.615 18.8047 182.382 18.984 182.215 19.2113L180.165 18.8438L180.681 13.0909H187.35V14.9766H182.583L182.301 17.7092H182.365C182.556 17.4393 182.846 17.2156 183.233 17.038C183.62 16.8604 184.053 16.7717 184.533 16.7717C185.19 16.7717 185.775 16.9261 186.29 17.2351C186.805 17.544 187.212 17.9684 187.51 18.5082C187.809 19.0444 187.956 19.6623 187.952 20.3619C187.956 21.0969 187.785 21.7504 187.441 22.3221C187.1 22.8903 186.622 23.3377 186.008 23.6644C185.397 23.9876 184.687 24.1491 183.877 24.1491ZM193.097 24V13.0909H197.401C198.228 13.0909 198.933 13.2489 199.515 13.565C200.098 13.8775 200.542 14.3125 200.847 14.87C201.156 15.424 201.31 16.0632 201.31 16.7876C201.31 17.5121 201.154 18.1513 200.842 18.7053C200.529 19.2592 200.076 19.6907 199.483 19.9996C198.894 20.3086 198.18 20.4631 197.342 20.4631H194.599V18.6147H196.969C197.413 18.6147 197.779 18.5384 198.066 18.3857C198.358 18.2294 198.574 18.0146 198.716 17.7411C198.862 17.4641 198.935 17.1463 198.935 16.7876C198.935 16.4254 198.862 16.1094 198.716 15.8395C198.574 15.5661 198.358 15.3548 198.066 15.2056C197.775 15.0529 197.406 14.9766 196.958 14.9766H195.403V24H193.097ZM212.833 18.5455C212.833 19.7351 212.608 20.7472 212.157 21.5817C211.709 22.4162 211.099 23.0536 210.324 23.494C209.554 23.9308 208.687 24.1491 207.725 24.1491C206.756 24.1491 205.886 23.929 205.115 23.4886C204.344 23.0483 203.735 22.4109 203.288 21.5763C202.84 20.7418 202.617 19.7315 202.617 18.5455C202.617 17.3558 202.84 16.3438 203.288 15.5092C203.735 14.6747 204.344 14.0391 205.115 13.6023C205.886 13.1619 206.756 12.9418 207.725 12.9418C208.687 12.9418 209.554 13.1619 210.324 13.6023C211.099 14.0391 211.709 14.6747 212.157 15.5092C212.608 16.3438 212.833 17.3558 212.833 18.5455ZM210.495 18.5455C210.495 17.7749 210.38 17.125 210.149 16.5959C209.921 16.0668 209.6 15.6655 209.185 15.392C208.769 15.1186 208.283 14.9819 207.725 14.9819C207.168 14.9819 206.681 15.1186 206.266 15.392C205.85 15.6655 205.527 16.0668 205.296 16.5959C205.069 17.125 204.955 17.7749 204.955 18.5455C204.955 19.3161 205.069 19.9659 205.296 20.495C205.527 21.0241 205.85 21.4254 206.266 21.6989C206.681 21.9723 207.168 22.109 207.725 22.109C208.283 22.109 208.769 21.9723 209.185 21.6989C209.6 21.4254 209.921 21.0241 210.149 20.495C210.38 19.9659 210.495 19.3161 210.495 18.5455ZM214.542 24V13.0909H216.848V22.0984H221.525V24H214.542ZM226.982 18.5455C226.982 17.2244 227.158 16.0082 227.51 14.8967C227.865 13.7852 228.406 12.7553 229.134 11.8072H231.302C231.025 12.1587 230.768 12.5884 230.53 13.0962C230.292 13.6005 230.084 14.1545 229.907 14.7582C229.729 15.3619 229.591 15.9869 229.491 16.6332C229.392 17.2759 229.342 17.9134 229.342 18.5455C229.342 19.3871 229.427 20.2376 229.598 21.0969C229.772 21.9528 230.006 22.7482 230.301 23.4833C230.599 24.2184 230.933 24.8203 231.302 25.2891H229.134C228.406 24.3409 227.865 23.3111 227.51 22.1996C227.158 21.0881 226.982 19.87 226.982 18.5455ZM235.858 22.3381V14.7955H237.765V22.3381H235.858ZM233.04 19.5202V17.6133H240.583V19.5202H233.04ZM246.752 24.1491C245.957 24.1491 245.249 24.0124 244.627 23.739C244.009 23.462 243.521 23.082 243.162 22.5991C242.807 22.1126 242.624 21.5515 242.614 20.9158H244.936C244.95 21.1822 245.037 21.4165 245.197 21.619C245.36 21.8178 245.577 21.9723 245.847 22.0824C246.117 22.1925 246.42 22.2475 246.758 22.2475C247.109 22.2475 247.42 22.1854 247.69 22.0611C247.96 21.9368 248.171 21.7646 248.324 21.5444C248.477 21.3242 248.553 21.0703 248.553 20.7827C248.553 20.4915 248.471 20.234 248.308 20.0103C248.148 19.783 247.917 19.6055 247.615 19.4776C247.317 19.3498 246.962 19.2859 246.55 19.2859H245.533V17.592H246.55C246.898 17.592 247.205 17.5316 247.472 17.4109C247.741 17.2901 247.951 17.1232 248.1 16.9102C248.249 16.6935 248.324 16.4414 248.324 16.1538C248.324 15.8803 248.258 15.6406 248.127 15.4347C247.999 15.2251 247.818 15.0618 247.583 14.9446C247.353 14.8274 247.083 14.7688 246.774 14.7688C246.461 14.7688 246.175 14.8256 245.916 14.9393C245.657 15.0494 245.449 15.2074 245.293 15.4134C245.137 15.6193 245.053 15.8608 245.043 16.1378H242.832C242.843 15.5092 243.022 14.9553 243.37 14.4759C243.718 13.9964 244.187 13.6218 244.776 13.3519C245.369 13.0785 246.039 12.9418 246.784 12.9418C247.537 12.9418 248.196 13.0785 248.761 13.3519C249.325 13.6254 249.764 13.9947 250.076 14.4599C250.392 14.9215 250.549 15.44 250.545 16.0153C250.549 16.6261 250.359 17.1357 249.975 17.544C249.595 17.9524 249.1 18.2116 248.489 18.3217V18.407C249.292 18.5099 249.902 18.7887 250.321 19.2433C250.744 19.6942 250.953 20.2589 250.95 20.9371C250.953 21.5586 250.774 22.1108 250.412 22.5938C250.053 23.0767 249.558 23.4567 248.926 23.7337C248.294 24.0107 247.569 24.1491 246.752 24.1491ZM252.608 24V22.3381L256.491 18.7425C256.821 18.4229 257.098 18.1353 257.322 17.8796C257.549 17.6239 257.722 17.3736 257.839 17.1286C257.956 16.88 258.014 16.6119 258.014 16.3242C258.014 16.0046 257.942 15.7294 257.796 15.4986C257.65 15.2642 257.452 15.0849 257.199 14.9606C256.947 14.8327 256.661 14.7688 256.342 14.7688C256.008 14.7688 255.717 14.8363 255.468 14.9712C255.22 15.1062 255.028 15.2997 254.893 15.5518C254.758 15.804 254.691 16.104 254.691 16.4521H252.501C252.501 15.7383 252.663 15.1186 252.986 14.593C253.309 14.0675 253.762 13.6609 254.344 13.3732C254.927 13.0856 255.598 12.9418 256.358 12.9418C257.139 12.9418 257.819 13.0803 258.398 13.3572C258.98 13.6307 259.433 14.0107 259.756 14.4972C260.079 14.9837 260.241 15.5412 260.241 16.1697C260.241 16.5817 260.159 16.9883 259.996 17.3896C259.836 17.7908 259.55 18.2365 259.138 18.7266C258.726 19.2131 258.146 19.7972 257.397 20.479L255.804 22.0398V22.1143H260.385V24H252.608ZM266.802 13.0909V24H264.496V15.2802H264.432L261.934 16.8462V14.8008L264.634 13.0909H266.802ZM275.366 21.9545V21.3793C275.366 20.9425 275.459 20.5412 275.643 20.1754C275.831 19.8061 276.103 19.5114 276.458 19.2912C276.817 19.0675 277.254 18.9556 277.769 18.9556C278.291 18.9556 278.729 19.0657 279.084 19.2859C279.443 19.506 279.713 19.8008 279.894 20.1701C280.079 20.5359 280.171 20.9389 280.171 21.3793V21.9545C280.171 22.3913 280.079 22.7944 279.894 23.1637C279.709 23.5295 279.438 23.8224 279.079 24.0426C278.72 24.2663 278.283 24.3782 277.769 24.3782C277.247 24.3782 276.808 24.2663 276.453 24.0426C276.098 23.8224 275.828 23.5295 275.643 23.1637C275.459 22.7944 275.366 22.3913 275.366 21.9545ZM276.916 21.3793V21.9545C276.916 22.2067 276.977 22.4446 277.097 22.6683C277.222 22.892 277.445 23.0039 277.769 23.0039C278.092 23.0039 278.312 22.8938 278.429 22.6737C278.55 22.4535 278.61 22.2138 278.61 21.9545V21.3793C278.61 21.12 278.553 20.8786 278.44 20.6548C278.326 20.4311 278.102 20.3192 277.769 20.3192C277.449 20.3192 277.227 20.4311 277.103 20.6548C276.978 20.8786 276.916 21.12 276.916 21.3793ZM269.768 15.7116V15.1364C269.768 14.696 269.862 14.293 270.05 13.9272C270.238 13.5579 270.51 13.2631 270.865 13.043C271.224 12.8228 271.657 12.7127 272.165 12.7127C272.69 12.7127 273.131 12.8228 273.486 13.043C273.841 13.2631 274.111 13.5579 274.296 13.9272C274.48 14.293 274.573 14.696 274.573 15.1364V15.7116C274.573 16.152 274.478 16.555 274.29 16.9208C274.106 17.2866 273.834 17.5795 273.475 17.7997C273.12 18.0163 272.683 18.1246 272.165 18.1246C271.646 18.1246 271.208 18.0146 270.849 17.7944C270.494 17.5707 270.224 17.2777 270.04 16.9155C269.858 16.5497 269.768 16.1484 269.768 15.7116ZM271.329 15.1364V15.7116C271.329 15.9709 271.389 16.2106 271.51 16.4308C271.634 16.6509 271.852 16.761 272.165 16.761C272.492 16.761 272.714 16.6509 272.831 16.4308C272.951 16.2106 273.012 15.9709 273.012 15.7116V15.1364C273.012 14.8771 272.955 14.6357 272.841 14.4119C272.728 14.1882 272.502 14.0763 272.165 14.0763C271.849 14.0763 271.63 14.19 271.51 14.4173C271.389 14.6445 271.329 14.8842 271.329 15.1364ZM270.471 24L277.971 13.0909H279.367L271.867 24H270.471ZM286.131 18.5455C286.131 19.87 285.954 21.0881 285.599 22.1996C285.247 23.3111 284.707 24.3409 283.979 25.2891H281.812C282.089 24.9375 282.346 24.5078 282.584 24C282.822 23.4922 283.03 22.9382 283.207 22.3381C283.385 21.7344 283.523 21.1094 283.623 20.4631C283.722 19.8168 283.772 19.1776 283.772 18.5455C283.772 17.7038 283.685 16.8551 283.511 15.9993C283.34 15.1399 283.106 14.3445 282.808 13.6129C282.513 12.8778 282.181 12.2759 281.812 11.8072H283.979C284.707 12.7553 285.247 13.7852 285.599 14.8967C285.954 16.0082 286.131 17.2244 286.131 18.5455Z" fill="#27A881"/>
<rect x="248.5" y="126.5" width="301" height="37" rx="9.5" stroke="#6E6E6E"/>
<path d="M268.724 140.263V139.091H276.906V140.263H273.476V150H272.155V140.263H268.724ZM277.925 150V141.818H279.139V143.054H279.225C279.374 142.649 279.644 142.321 280.034 142.069C280.425 141.816 280.865 141.69 281.355 141.69C281.448 141.69 281.563 141.692 281.702 141.696C281.84 141.699 281.945 141.705 282.016 141.712V142.99C281.973 142.979 281.876 142.963 281.723 142.942C281.574 142.917 281.416 142.905 281.249 142.905C280.851 142.905 280.496 142.988 280.184 143.155C279.875 143.319 279.63 143.546 279.448 143.837C279.271 144.125 279.182 144.453 279.182 144.822V150H277.925ZM285.914 150.192C285.395 150.192 284.925 150.094 284.502 149.899C284.08 149.7 283.744 149.414 283.495 149.041C283.247 148.665 283.123 148.21 283.123 147.678C283.123 147.209 283.215 146.829 283.4 146.538C283.584 146.243 283.831 146.012 284.14 145.845C284.449 145.678 284.79 145.554 285.163 145.472C285.539 145.387 285.917 145.32 286.297 145.27C286.794 145.206 287.197 145.158 287.506 145.126C287.819 145.091 288.046 145.032 288.188 144.95C288.334 144.869 288.407 144.727 288.407 144.524V144.482C288.407 143.956 288.263 143.548 287.975 143.256C287.691 142.965 287.26 142.82 286.681 142.82C286.081 142.82 285.61 142.951 285.269 143.214C284.928 143.477 284.689 143.757 284.55 144.055L283.357 143.629C283.57 143.132 283.854 142.745 284.209 142.468C284.568 142.187 284.958 141.992 285.381 141.882C285.807 141.768 286.226 141.712 286.638 141.712C286.901 141.712 287.203 141.744 287.544 141.808C287.888 141.868 288.22 141.994 288.54 142.186C288.863 142.377 289.131 142.667 289.344 143.054C289.557 143.441 289.664 143.96 289.664 144.609V150H288.407V148.892H288.343C288.257 149.07 288.115 149.26 287.917 149.462C287.718 149.664 287.453 149.837 287.123 149.979C286.793 150.121 286.39 150.192 285.914 150.192ZM286.105 149.062C286.603 149.062 287.022 148.965 287.363 148.77C287.707 148.574 287.966 148.322 288.14 148.013C288.318 147.704 288.407 147.379 288.407 147.038V145.888C288.353 145.952 288.236 146.01 288.055 146.064C287.877 146.113 287.672 146.158 287.437 146.197C287.206 146.232 286.981 146.264 286.761 146.293C286.544 146.317 286.368 146.339 286.233 146.357C285.907 146.399 285.601 146.468 285.317 146.564C285.037 146.657 284.809 146.797 284.635 146.985C284.465 147.17 284.38 147.422 284.38 147.741C284.38 148.178 284.541 148.509 284.864 148.732C285.191 148.952 285.605 149.062 286.105 149.062ZM293.215 145.078V150H291.958V141.818H293.173V143.097H293.279C293.471 142.681 293.762 142.347 294.153 142.095C294.543 141.839 295.048 141.712 295.666 141.712C296.22 141.712 296.704 141.825 297.12 142.053C297.535 142.276 297.858 142.617 298.089 143.075C298.32 143.53 298.435 144.105 298.435 144.801V150H297.178V144.886C297.178 144.244 297.011 143.743 296.678 143.384C296.344 143.022 295.886 142.841 295.303 142.841C294.902 142.841 294.543 142.928 294.227 143.102C293.915 143.276 293.668 143.53 293.487 143.864C293.306 144.197 293.215 144.602 293.215 145.078ZM306.528 143.651L305.399 143.97C305.328 143.782 305.223 143.599 305.085 143.422C304.95 143.24 304.765 143.091 304.531 142.974C304.296 142.857 303.996 142.798 303.63 142.798C303.13 142.798 302.712 142.914 302.379 143.145C302.048 143.372 301.883 143.661 301.883 144.013C301.883 144.325 301.997 144.572 302.224 144.753C302.451 144.934 302.806 145.085 303.289 145.206L304.504 145.504C305.235 145.682 305.781 145.953 306.139 146.319C306.498 146.681 306.677 147.148 306.677 147.72C306.677 148.189 306.542 148.608 306.272 148.977C306.006 149.347 305.633 149.638 305.154 149.851C304.674 150.064 304.117 150.17 303.481 150.17C302.647 150.17 301.956 149.989 301.409 149.627C300.862 149.265 300.516 148.736 300.37 148.04L301.564 147.741C301.677 148.182 301.892 148.512 302.208 148.732C302.528 148.952 302.945 149.062 303.46 149.062C304.046 149.062 304.511 148.938 304.855 148.69C305.203 148.437 305.377 148.136 305.377 147.784C305.377 147.5 305.278 147.262 305.079 147.07C304.88 146.875 304.575 146.729 304.163 146.634L302.799 146.314C302.05 146.136 301.5 145.861 301.148 145.488C300.8 145.112 300.626 144.641 300.626 144.077C300.626 143.615 300.756 143.207 301.015 142.852C301.278 142.496 301.635 142.218 302.086 142.015C302.54 141.813 303.055 141.712 303.63 141.712C304.44 141.712 305.076 141.889 305.537 142.244C306.002 142.599 306.333 143.068 306.528 143.651ZM310.977 150.192C310.459 150.192 309.988 150.094 309.566 149.899C309.143 149.7 308.807 149.414 308.559 149.041C308.31 148.665 308.186 148.21 308.186 147.678C308.186 147.209 308.278 146.829 308.463 146.538C308.648 146.243 308.894 146.012 309.203 145.845C309.512 145.678 309.853 145.554 310.226 145.472C310.603 145.387 310.981 145.32 311.361 145.27C311.858 145.206 312.261 145.158 312.57 145.126C312.882 145.091 313.11 145.032 313.252 144.95C313.397 144.869 313.47 144.727 313.47 144.524V144.482C313.47 143.956 313.326 143.548 313.039 143.256C312.755 142.965 312.323 142.82 311.744 142.82C311.144 142.82 310.674 142.951 310.333 143.214C309.992 143.477 309.752 143.757 309.614 144.055L308.42 143.629C308.633 143.132 308.918 142.745 309.273 142.468C309.631 142.187 310.022 141.992 310.445 141.882C310.871 141.768 311.29 141.712 311.702 141.712C311.964 141.712 312.266 141.744 312.607 141.808C312.952 141.868 313.284 141.994 313.603 142.186C313.926 142.377 314.195 142.667 314.408 143.054C314.621 143.441 314.727 143.96 314.727 144.609V150H313.47V148.892H313.406C313.321 149.07 313.179 149.26 312.98 149.462C312.781 149.664 312.517 149.837 312.186 149.979C311.856 150.121 311.453 150.192 310.977 150.192ZM311.169 149.062C311.666 149.062 312.085 148.965 312.426 148.77C312.771 148.574 313.03 148.322 313.204 148.013C313.381 147.704 313.47 147.379 313.47 147.038V145.888C313.417 145.952 313.3 146.01 313.119 146.064C312.941 146.113 312.735 146.158 312.501 146.197C312.27 146.232 312.044 146.264 311.824 146.293C311.608 146.317 311.432 146.339 311.297 146.357C310.97 146.399 310.665 146.468 310.381 146.564C310.1 146.657 309.873 146.797 309.699 146.985C309.528 147.17 309.443 147.422 309.443 147.741C309.443 148.178 309.605 148.509 309.928 148.732C310.255 148.952 310.668 149.062 311.169 149.062ZM320.346 150.17C319.578 150.17 318.918 149.989 318.364 149.627C317.81 149.265 317.384 148.766 317.086 148.13C316.787 147.495 316.638 146.768 316.638 145.952C316.638 145.121 316.791 144.387 317.096 143.752C317.405 143.113 317.835 142.614 318.385 142.255C318.939 141.893 319.586 141.712 320.324 141.712C320.9 141.712 321.418 141.818 321.88 142.031C322.341 142.244 322.719 142.543 323.014 142.926C323.309 143.31 323.492 143.757 323.563 144.268H322.306C322.21 143.896 321.997 143.565 321.667 143.278C321.34 142.987 320.9 142.841 320.346 142.841C319.855 142.841 319.426 142.969 319.056 143.224C318.691 143.477 318.405 143.833 318.199 144.295C317.996 144.753 317.895 145.291 317.895 145.909C317.895 146.541 317.995 147.092 318.194 147.56C318.396 148.029 318.68 148.393 319.046 148.652C319.415 148.912 319.848 149.041 320.346 149.041C320.672 149.041 320.969 148.984 321.235 148.871C321.501 148.757 321.727 148.594 321.912 148.381C322.096 148.168 322.228 147.912 322.306 147.614H323.563C323.492 148.097 323.316 148.532 323.036 148.919C322.759 149.302 322.391 149.608 321.933 149.835C321.478 150.059 320.949 150.17 320.346 150.17ZM328.959 141.818V142.884H324.719V141.818H328.959ZM325.955 139.858H327.212V147.656C327.212 148.011 327.263 148.278 327.366 148.455C327.473 148.629 327.608 148.746 327.771 148.807C327.938 148.864 328.114 148.892 328.298 148.892C328.437 148.892 328.55 148.885 328.639 148.871C328.728 148.853 328.799 148.839 328.852 148.828L329.108 149.957C329.023 149.989 328.904 150.021 328.751 150.053C328.598 150.089 328.405 150.107 328.17 150.107C327.815 150.107 327.467 150.03 327.126 149.877C326.789 149.725 326.509 149.492 326.285 149.18C326.065 148.867 325.955 148.473 325.955 147.997V139.858ZM330.85 150V141.818H332.107V150H330.85ZM331.489 140.455C331.244 140.455 331.033 140.371 330.855 140.204C330.681 140.037 330.594 139.837 330.594 139.602C330.594 139.368 330.681 139.167 330.855 139C331.033 138.833 331.244 138.75 331.489 138.75C331.734 138.75 331.944 138.833 332.118 139C332.295 139.167 332.384 139.368 332.384 139.602C332.384 139.837 332.295 140.037 332.118 140.204C331.944 140.371 331.734 140.455 331.489 140.455ZM337.733 150.17C336.995 150.17 336.347 149.995 335.789 149.643C335.235 149.292 334.802 148.8 334.489 148.168C334.18 147.536 334.026 146.797 334.026 145.952C334.026 145.099 334.18 144.355 334.489 143.72C334.802 143.084 335.235 142.591 335.789 142.239C336.347 141.887 336.995 141.712 337.733 141.712C338.472 141.712 339.118 141.887 339.672 142.239C340.23 142.591 340.663 143.084 340.972 143.72C341.284 144.355 341.441 145.099 341.441 145.952C341.441 146.797 341.284 147.536 340.972 148.168C340.663 148.8 340.23 149.292 339.672 149.643C339.118 149.995 338.472 150.17 337.733 150.17ZM337.733 149.041C338.294 149.041 338.756 148.897 339.118 148.61C339.48 148.322 339.748 147.944 339.922 147.475C340.097 147.006 340.184 146.499 340.184 145.952C340.184 145.405 340.097 144.895 339.922 144.423C339.748 143.951 339.48 143.569 339.118 143.278C338.756 142.987 338.294 142.841 337.733 142.841C337.172 142.841 336.71 142.987 336.348 143.278C335.986 143.569 335.718 143.951 335.544 144.423C335.37 144.895 335.283 145.405 335.283 145.952C335.283 146.499 335.37 147.006 335.544 147.475C335.718 147.944 335.986 148.322 336.348 148.61C336.71 148.897 337.172 149.041 337.733 149.041ZM344.617 145.078V150H343.36V141.818H344.574V143.097H344.681C344.872 142.681 345.164 142.347 345.554 142.095C345.945 141.839 346.449 141.712 347.067 141.712C347.621 141.712 348.106 141.825 348.521 142.053C348.937 142.276 349.26 142.617 349.491 143.075C349.721 143.53 349.837 144.105 349.837 144.801V150H348.58V144.886C348.58 144.244 348.413 143.743 348.079 143.384C347.745 143.022 347.287 142.841 346.705 142.841C346.303 142.841 345.945 142.928 345.629 143.102C345.316 143.276 345.069 143.53 344.888 143.864C344.707 144.197 344.617 144.602 344.617 145.078ZM356.331 150V149.041L359.932 145.099C360.355 144.638 360.703 144.237 360.976 143.896C361.25 143.551 361.452 143.228 361.584 142.926C361.718 142.621 361.786 142.301 361.786 141.967C361.786 141.584 361.694 141.252 361.509 140.971C361.328 140.691 361.079 140.474 360.763 140.321C360.447 140.169 360.092 140.092 359.698 140.092C359.279 140.092 358.913 140.179 358.601 140.353C358.292 140.524 358.052 140.763 357.881 141.072C357.715 141.381 357.631 141.744 357.631 142.159H356.374C356.374 141.52 356.521 140.959 356.816 140.476C357.111 139.993 357.512 139.616 358.02 139.347C358.531 139.077 359.105 138.942 359.741 138.942C360.38 138.942 360.946 139.077 361.44 139.347C361.933 139.616 362.32 139.98 362.601 140.439C362.881 140.897 363.022 141.406 363.022 141.967C363.022 142.369 362.949 142.761 362.803 143.145C362.661 143.525 362.413 143.949 362.058 144.418C361.706 144.883 361.218 145.451 360.593 146.122L358.142 148.743V148.828H363.214V150H356.331Z" fill="#FCFCFC"/>
<path d="M379.144 148.338V140.795H381.051V148.338H379.144ZM376.326 145.52V143.613H383.869V145.52H376.326ZM393.536 150.149C392.783 150.149 392.112 150.011 391.522 149.734C390.936 149.457 390.471 149.075 390.127 148.588C389.782 148.102 389.603 147.544 389.589 146.916H391.826C391.851 147.338 392.028 147.681 392.358 147.944C392.689 148.207 393.081 148.338 393.536 148.338C393.898 148.338 394.217 148.258 394.494 148.098C394.775 147.935 394.993 147.71 395.15 147.422C395.309 147.131 395.389 146.797 395.389 146.42C395.389 146.037 395.308 145.7 395.144 145.408C394.984 145.117 394.763 144.89 394.478 144.727C394.194 144.563 393.869 144.48 393.504 144.476C393.184 144.476 392.873 144.542 392.571 144.673C392.273 144.805 392.041 144.984 391.874 145.211L389.823 144.844L390.34 139.091H397.009V140.977H392.241L391.959 143.709H392.023C392.215 143.439 392.504 143.216 392.891 143.038C393.278 142.86 393.711 142.772 394.191 142.772C394.848 142.772 395.434 142.926 395.949 143.235C396.464 143.544 396.87 143.968 397.168 144.508C397.467 145.044 397.614 145.662 397.611 146.362C397.614 147.097 397.444 147.75 397.099 148.322C396.758 148.89 396.281 149.338 395.666 149.664C395.055 149.988 394.345 150.149 393.536 150.149ZM399.219 150V148.338L403.102 144.743C403.433 144.423 403.71 144.135 403.933 143.88C404.161 143.624 404.333 143.374 404.45 143.129C404.567 142.88 404.626 142.612 404.626 142.324C404.626 142.005 404.553 141.729 404.407 141.499C404.262 141.264 404.063 141.085 403.811 140.961C403.559 140.833 403.273 140.769 402.953 140.769C402.619 140.769 402.328 140.836 402.08 140.971C401.831 141.106 401.639 141.3 401.504 141.552C401.369 141.804 401.302 142.104 401.302 142.452H399.113C399.113 141.738 399.274 141.119 399.597 140.593C399.921 140.067 400.373 139.661 400.956 139.373C401.538 139.086 402.209 138.942 402.969 138.942C403.75 138.942 404.43 139.08 405.009 139.357C405.592 139.631 406.044 140.011 406.368 140.497C406.691 140.984 406.852 141.541 406.852 142.17C406.852 142.582 406.771 142.988 406.607 143.39C406.448 143.791 406.162 144.237 405.75 144.727C405.338 145.213 404.757 145.797 404.008 146.479L402.415 148.04V148.114H406.996V150H399.219ZM412.7 150.149C411.904 150.149 411.196 150.012 410.574 149.739C409.956 149.462 409.468 149.082 409.11 148.599C408.754 148.113 408.572 147.551 408.561 146.916H410.883C410.898 147.182 410.985 147.417 411.144 147.619C411.308 147.818 411.524 147.972 411.794 148.082C412.064 148.192 412.368 148.248 412.705 148.248C413.057 148.248 413.367 148.185 413.637 148.061C413.907 147.937 414.118 147.765 414.271 147.544C414.424 147.324 414.5 147.07 414.5 146.783C414.5 146.491 414.419 146.234 414.255 146.01C414.095 145.783 413.865 145.605 413.563 145.478C413.264 145.35 412.909 145.286 412.497 145.286H411.48V143.592H412.497C412.845 143.592 413.153 143.532 413.419 143.411C413.689 143.29 413.898 143.123 414.047 142.91C414.197 142.694 414.271 142.441 414.271 142.154C414.271 141.88 414.205 141.641 414.074 141.435C413.946 141.225 413.765 141.062 413.531 140.945C413.3 140.827 413.03 140.769 412.721 140.769C412.409 140.769 412.123 140.826 411.863 140.939C411.604 141.049 411.396 141.207 411.24 141.413C411.084 141.619 411.001 141.861 410.99 142.138H408.779C408.79 141.509 408.969 140.955 409.317 140.476C409.665 139.996 410.134 139.622 410.724 139.352C411.317 139.078 411.986 138.942 412.732 138.942C413.485 138.942 414.143 139.078 414.708 139.352C415.273 139.625 415.711 139.995 416.024 140.46C416.34 140.922 416.496 141.44 416.492 142.015C416.496 142.626 416.306 143.136 415.922 143.544C415.542 143.952 415.047 144.212 414.436 144.322V144.407C415.239 144.51 415.85 144.789 416.269 145.243C416.691 145.694 416.901 146.259 416.897 146.937C416.901 147.559 416.721 148.111 416.359 148.594C416.001 149.077 415.505 149.457 414.873 149.734C414.241 150.011 413.517 150.149 412.7 150.149ZM419.595 150.138C419.244 150.138 418.942 150.014 418.69 149.766C418.441 149.513 418.317 149.212 418.317 148.86C418.317 148.512 418.441 148.214 418.69 147.965C418.942 147.717 419.244 147.592 419.595 147.592C419.936 147.592 420.234 147.717 420.49 147.965C420.746 148.214 420.874 148.512 420.874 148.86C420.874 149.094 420.813 149.309 420.692 149.505C420.575 149.696 420.421 149.851 420.229 149.968C420.037 150.082 419.826 150.138 419.595 150.138ZM422.737 150L427.259 141.051V140.977H421.991V139.091H429.645V141.003L425.118 150H422.737ZM434.762 150V139.091H439.066C439.893 139.091 440.598 139.249 441.18 139.565C441.763 139.877 442.207 140.312 442.512 140.87C442.821 141.424 442.975 142.063 442.975 142.788C442.975 143.512 442.819 144.151 442.507 144.705C442.194 145.259 441.741 145.691 441.148 146C440.559 146.309 439.845 146.463 439.007 146.463H436.264V144.615H438.634C439.078 144.615 439.444 144.538 439.731 144.386C440.023 144.229 440.239 144.015 440.381 143.741C440.527 143.464 440.6 143.146 440.6 142.788C440.6 142.425 440.527 142.109 440.381 141.839C440.239 141.566 440.023 141.355 439.731 141.206C439.44 141.053 439.071 140.977 438.623 140.977H437.068V150H434.762ZM454.498 144.545C454.498 145.735 454.273 146.747 453.822 147.582C453.374 148.416 452.764 149.054 451.99 149.494C451.219 149.931 450.352 150.149 449.39 150.149C448.421 150.149 447.551 149.929 446.78 149.489C446.009 149.048 445.4 148.411 444.953 147.576C444.506 146.742 444.282 145.732 444.282 144.545C444.282 143.356 444.506 142.344 444.953 141.509C445.4 140.675 446.009 140.039 446.78 139.602C447.551 139.162 448.421 138.942 449.39 138.942C450.352 138.942 451.219 139.162 451.99 139.602C452.764 140.039 453.374 140.675 453.822 141.509C454.273 142.344 454.498 143.356 454.498 144.545ZM452.16 144.545C452.16 143.775 452.045 143.125 451.814 142.596C451.586 142.067 451.265 141.665 450.85 141.392C450.434 141.119 449.948 140.982 449.39 140.982C448.833 140.982 448.346 141.119 447.931 141.392C447.515 141.665 447.192 142.067 446.961 142.596C446.734 143.125 446.62 143.775 446.62 144.545C446.62 145.316 446.734 145.966 446.961 146.495C447.192 147.024 447.515 147.425 447.931 147.699C448.346 147.972 448.833 148.109 449.39 148.109C449.948 148.109 450.434 147.972 450.85 147.699C451.265 147.425 451.586 147.024 451.814 146.495C452.045 145.966 452.16 145.316 452.16 144.545ZM456.207 150V139.091H458.513V148.098H463.19V150H456.207ZM468.647 144.545C468.647 143.224 468.823 142.008 469.175 140.897C469.53 139.785 470.071 138.755 470.799 137.807H472.967C472.69 138.159 472.433 138.588 472.195 139.096C471.957 139.6 471.749 140.154 471.572 140.758C471.394 141.362 471.256 141.987 471.156 142.633C471.057 143.276 471.007 143.913 471.007 144.545C471.007 145.387 471.092 146.238 471.263 147.097C471.437 147.953 471.671 148.748 471.966 149.483C472.264 150.218 472.598 150.82 472.967 151.289H470.799C470.071 150.341 469.53 149.311 469.175 148.2C468.823 147.088 468.647 145.87 468.647 144.545ZM477.523 148.338V140.795H479.43V148.338H477.523ZM474.705 145.52V143.613H482.248V145.52H474.705ZM489.205 139.091V150H486.898V141.28H486.834L484.336 142.846V140.801L487.037 139.091H489.205ZM491.797 150V148.338L495.68 144.743C496.011 144.423 496.288 144.135 496.511 143.88C496.739 143.624 496.911 143.374 497.028 143.129C497.145 142.88 497.204 142.612 497.204 142.324C497.204 142.005 497.131 141.729 496.986 141.499C496.84 141.264 496.641 141.085 496.389 140.961C496.137 140.833 495.851 140.769 495.531 140.769C495.198 140.769 494.906 140.836 494.658 140.971C494.409 141.106 494.217 141.3 494.082 141.552C493.948 141.804 493.88 142.104 493.88 142.452H491.691C491.691 141.738 491.852 141.119 492.176 140.593C492.499 140.067 492.951 139.661 493.534 139.373C494.116 139.086 494.787 138.942 495.547 138.942C496.329 138.942 497.009 139.08 497.587 139.357C498.17 139.631 498.623 140.011 498.946 140.497C499.269 140.984 499.43 141.541 499.43 142.17C499.43 142.582 499.349 142.988 499.185 143.39C499.026 143.791 498.74 144.237 498.328 144.727C497.916 145.213 497.335 145.797 496.586 146.479L494.993 148.04V148.114H499.574V150H491.797ZM505.315 150.149C504.495 150.149 503.765 150.016 503.126 149.75C502.49 149.48 501.991 149.112 501.629 148.647C501.267 148.182 501.086 147.654 501.086 147.065C501.086 146.61 501.189 146.193 501.395 145.813C501.604 145.43 501.888 145.112 502.247 144.86C502.606 144.604 503.007 144.441 503.451 144.37V144.295C502.868 144.178 502.396 143.896 502.034 143.448C501.672 142.997 501.491 142.473 501.491 141.877C501.491 141.312 501.656 140.81 501.986 140.369C502.316 139.925 502.769 139.577 503.344 139.325C503.923 139.07 504.58 138.942 505.315 138.942C506.05 138.942 506.705 139.07 507.281 139.325C507.86 139.581 508.314 139.931 508.644 140.375C508.975 140.815 509.142 141.316 509.145 141.877C509.142 142.477 508.957 143.001 508.591 143.448C508.225 143.896 507.757 144.178 507.185 144.295V144.37C507.622 144.441 508.018 144.604 508.373 144.86C508.731 145.112 509.015 145.43 509.225 145.813C509.438 146.193 509.546 146.61 509.55 147.065C509.546 147.654 509.363 148.182 509.001 148.647C508.639 149.112 508.138 149.48 507.499 149.75C506.863 150.016 506.135 150.149 505.315 150.149ZM505.315 148.455C505.681 148.455 506.001 148.39 506.274 148.258C506.547 148.123 506.76 147.939 506.913 147.704C507.069 147.466 507.148 147.193 507.148 146.884C507.148 146.568 507.068 146.289 506.908 146.048C506.748 145.803 506.531 145.611 506.258 145.472C505.985 145.33 505.67 145.259 505.315 145.259C504.964 145.259 504.649 145.33 504.372 145.472C504.095 145.611 503.877 145.803 503.717 146.048C503.561 146.289 503.483 146.568 503.483 146.884C503.483 147.193 503.559 147.466 503.712 147.704C503.865 147.939 504.079 148.123 504.356 148.258C504.633 148.39 504.953 148.455 505.315 148.455ZM505.315 143.581C505.621 143.581 505.892 143.519 506.13 143.395C506.368 143.271 506.555 143.098 506.689 142.878C506.824 142.658 506.892 142.404 506.892 142.116C506.892 141.832 506.824 141.584 506.689 141.371C506.555 141.154 506.37 140.985 506.135 140.865C505.901 140.74 505.628 140.678 505.315 140.678C505.006 140.678 504.733 140.74 504.495 140.865C504.257 140.985 504.07 141.154 503.936 141.371C503.804 141.584 503.738 141.832 503.738 142.116C503.738 142.404 503.806 142.658 503.941 142.878C504.076 143.098 504.262 143.271 504.5 143.395C504.738 143.519 505.01 143.581 505.315 143.581ZM517.134 147.955V147.379C517.134 146.942 517.226 146.541 517.411 146.175C517.599 145.806 517.871 145.511 518.226 145.291C518.584 145.067 519.021 144.956 519.536 144.956C520.058 144.956 520.497 145.066 520.852 145.286C521.21 145.506 521.48 145.801 521.661 146.17C521.846 146.536 521.938 146.939 521.938 147.379V147.955C521.938 148.391 521.846 148.794 521.661 149.164C521.477 149.529 521.205 149.822 520.847 150.043C520.488 150.266 520.051 150.378 519.536 150.378C519.014 150.378 518.576 150.266 518.22 150.043C517.865 149.822 517.595 149.529 517.411 149.164C517.226 148.794 517.134 148.391 517.134 147.955ZM518.684 147.379V147.955C518.684 148.207 518.744 148.445 518.865 148.668C518.989 148.892 519.213 149.004 519.536 149.004C519.859 149.004 520.079 148.894 520.197 148.674C520.317 148.453 520.378 148.214 520.378 147.955V147.379C520.378 147.12 520.321 146.879 520.207 146.655C520.094 146.431 519.87 146.319 519.536 146.319C519.217 146.319 518.995 146.431 518.87 146.655C518.746 146.879 518.684 147.12 518.684 147.379ZM511.535 141.712V141.136C511.535 140.696 511.63 140.293 511.818 139.927C512.006 139.558 512.278 139.263 512.633 139.043C512.991 138.823 513.425 138.713 513.932 138.713C514.458 138.713 514.898 138.823 515.253 139.043C515.609 139.263 515.878 139.558 516.063 139.927C516.248 140.293 516.34 140.696 516.34 141.136V141.712C516.34 142.152 516.246 142.555 516.058 142.921C515.873 143.287 515.601 143.58 515.243 143.8C514.888 144.016 514.451 144.125 513.932 144.125C513.414 144.125 512.975 144.015 512.617 143.794C512.262 143.571 511.992 143.278 511.807 142.915C511.626 142.55 511.535 142.148 511.535 141.712ZM513.096 141.136V141.712C513.096 141.971 513.157 142.211 513.277 142.431C513.402 142.651 513.62 142.761 513.932 142.761C514.259 142.761 514.481 142.651 514.598 142.431C514.719 142.211 514.779 141.971 514.779 141.712V141.136C514.779 140.877 514.723 140.636 514.609 140.412C514.495 140.188 514.27 140.076 513.932 140.076C513.616 140.076 513.398 140.19 513.277 140.417C513.157 140.645 513.096 140.884 513.096 141.136ZM512.239 150L519.739 139.091H521.134L513.634 150H512.239ZM527.899 144.545C527.899 145.87 527.722 147.088 527.366 148.2C527.015 149.311 526.475 150.341 525.747 151.289H523.579C523.856 150.938 524.114 150.508 524.351 150C524.589 149.492 524.797 148.938 524.975 148.338C525.152 147.734 525.291 147.109 525.39 146.463C525.49 145.817 525.539 145.178 525.539 144.545C525.539 143.704 525.452 142.855 525.278 141.999C525.108 141.14 524.873 140.344 524.575 139.613C524.28 138.878 523.948 138.276 523.579 137.807H525.747C526.475 138.755 527.015 139.785 527.366 140.897C527.722 142.008 527.899 143.224 527.899 144.545Z" fill="#27A881"/>
<path d="M401.646 126.354C401.842 126.549 402.158 126.549 402.354 126.354L405.536 123.172C405.731 122.976 405.731 122.66 405.536 122.464C405.34 122.269 405.024 122.269 404.828 122.464L402 125.293L399.172 122.464C398.976 122.269 398.66 122.269 398.464 122.464C398.269 122.66 398.269 122.976 398.464 123.172L401.646 126.354ZM402 84L401.5 84L401.5 126L402 126L402.5 126L402.5 84L402 84Z" fill="white"/>
<path d="M168.354 86.3536C168.549 86.1583 168.549 85.8417 168.354 85.6464L165.172 82.4645C164.976 82.2692 164.66 82.2692 164.464 82.4645C164.269 82.6597 164.269 82.9763 164.464 83.1716L167.293 86L164.464 88.8284C164.269 89.0237 164.269 89.3403 164.464 89.5355C164.66 89.7308 164.976 89.7308 165.172 89.5355L168.354 86.3536ZM109 86V86.5L168 86.5V86V85.5L109 85.5V86Z" fill="white"/>
<line x1="109.5" y1="86" x2="109.5" y2="37" stroke="white"/>
<line x1="343" y1="84.5" x2="402" y2="84.5" stroke="white"/>
<path d="M296.062 96.5039C296.132 96.5127 296.2 96.5364 296.261 96.5732L296.318 96.6143L307.324 105.677C307.685 105.974 307.475 106.562 307.006 106.562H301.414C301.127 106.562 300.844 106.624 300.583 106.743C300.322 106.862 300.09 107.036 299.902 107.253L296.378 111.326C296.075 111.676 295.5 111.462 295.5 110.998V97C295.5 96.9052 295.527 96.8125 295.578 96.7324C295.629 96.6524 295.701 96.5883 295.787 96.5479C295.873 96.5076 295.968 96.4923 296.062 96.5039Z" fill="black" stroke="white"/>
</svg>
