<svg width="544" height="195" viewBox="0 0 544 195" fill="none" xmlns="http://www.w3.org/2000/svg">
<rect x="0.403409" y="70.4034" width="70.3296" height="23.3977" rx="3.63068" stroke="#27A881" stroke-width="0.806818"/>
<path d="M11.8578 85.0826V78.1857H13.6015V85.0826H11.8578ZM9.28117 82.506V80.7623H16.1781V82.506H9.28117ZM24.725 87.8492V75.3802H25.5238V87.8492H24.725ZM26.8437 79.4959C26.8047 79.103 26.6375 78.7978 26.342 78.5802C26.0465 78.3627 25.6455 78.2539 25.139 78.2539C24.7948 78.2539 24.5042 78.3026 24.2671 78.4C24.0301 78.4942 23.8482 78.6257 23.7216 78.7946C23.5982 78.9634 23.5365 79.155 23.5365 79.3693C23.53 79.5479 23.5674 79.7038 23.6485 79.8369C23.733 79.97 23.8482 80.0853 23.9944 80.1827C24.1405 80.2769 24.3093 80.3597 24.5009 80.4311C24.6925 80.4993 24.8971 80.5577 25.1146 80.6065L26.0108 80.8208C26.4459 80.9182 26.8453 81.0481 27.209 81.2104C27.5727 81.3728 27.8877 81.5725 28.1539 81.8095C28.4202 82.0466 28.6264 82.3258 28.7725 82.6473C28.9219 82.9687 28.9982 83.3373 29.0014 83.7529C28.9982 84.3634 28.8423 84.8927 28.5339 85.3408C28.2286 85.7856 27.787 86.1315 27.209 86.3782C26.6343 86.6218 25.941 86.7435 25.1292 86.7435C24.3239 86.7435 23.6226 86.6202 23.0251 86.3734C22.4309 86.1266 21.9665 85.7613 21.6321 85.2775C21.3009 84.7904 21.1271 84.188 21.1109 83.4704H23.1517C23.1744 83.8049 23.2702 84.0841 23.4391 84.3082C23.6112 84.529 23.8401 84.6962 24.1259 84.8099C24.4149 84.9203 24.7412 84.9755 25.1049 84.9755C25.4621 84.9755 25.7722 84.9235 26.0352 84.8196C26.3014 84.7157 26.5076 84.5712 26.6538 84.3861C26.7999 84.201 26.8729 83.9883 26.8729 83.7481C26.8729 83.524 26.8064 83.3357 26.6732 83.1831C26.5434 83.0304 26.3518 82.9006 26.0985 82.7934C25.8485 82.6862 25.5416 82.5888 25.1779 82.5012L24.0918 82.2284C23.2508 82.0238 22.5867 81.704 22.0996 81.2689C21.6126 80.8338 21.3707 80.2476 21.3739 79.5105C21.3707 78.9066 21.5314 78.3789 21.8561 77.9276C22.1841 77.4762 22.6338 77.1239 23.2053 76.8706C23.7768 76.6173 24.4262 76.4907 25.1536 76.4907C25.8939 76.4907 26.5401 76.6173 27.0921 76.8706C27.6474 77.1239 28.0793 77.4762 28.3877 77.9276C28.6962 78.3789 28.8553 78.9017 28.8651 79.4959H26.8437ZM34.7014 76.6271V86.6023H32.5924V78.6289H32.5339L30.2496 80.0609V78.1906L32.719 76.6271H34.7014ZM40.6814 76.4907C41.1944 76.4907 41.688 76.5768 42.1621 76.7489C42.6394 76.921 43.0648 77.1953 43.4382 77.572C43.8149 77.9487 44.112 78.4487 44.3296 79.0722C44.5504 79.6924 44.6624 80.4538 44.6656 81.3565C44.6656 82.204 44.5698 82.9606 44.3783 83.6263C44.1899 84.2887 43.9188 84.8521 43.5648 85.3164C43.2109 85.7808 42.7839 86.1347 42.2839 86.3782C41.7838 86.6185 41.2253 86.7387 40.6083 86.7387C39.9427 86.7387 39.3549 86.6104 38.8451 86.3539C38.3353 86.0941 37.9246 85.7418 37.6128 85.2969C37.3044 84.8488 37.1177 84.3455 37.0527 83.787H39.1325C39.2137 84.1507 39.3842 84.4332 39.6439 84.6345C39.9037 84.8326 40.2252 84.9316 40.6083 84.9316C41.2578 84.9316 41.7513 84.6491 42.089 84.0841C42.4267 83.5159 42.5972 82.7382 42.6004 81.7511H42.5323C42.3829 82.0433 42.1816 82.295 41.9283 82.506C41.675 82.7138 41.3844 82.8746 41.0564 82.9882C40.7317 83.1019 40.3859 83.1587 40.019 83.1587C39.4312 83.1587 38.9068 83.0207 38.4457 82.7447C37.9846 82.4687 37.621 82.0888 37.3547 81.605C37.0884 81.1211 36.9553 80.5691 36.9553 79.9489C36.9521 79.28 37.1063 78.6842 37.418 78.1614C37.7297 77.6386 38.1649 77.2294 38.7234 76.9339C39.2851 76.6352 39.9378 76.4875 40.6814 76.4907ZM40.696 78.1467C40.368 78.1467 40.0758 78.2247 39.8193 78.3805C39.566 78.5364 39.3647 78.7458 39.2153 79.0089C39.0692 79.2719 38.9978 79.5657 39.001 79.8905C39.001 80.2184 39.0724 80.5139 39.2153 80.7769C39.3614 81.0367 39.5595 81.2445 39.8095 81.4004C40.0628 81.553 40.3518 81.6293 40.6765 81.6293C40.9201 81.6293 41.1457 81.5838 41.3535 81.4929C41.5614 81.402 41.7416 81.277 41.8942 81.1179C42.0501 80.9555 42.1718 80.7688 42.2595 80.5577C42.3472 80.3467 42.391 80.1226 42.391 79.8856C42.3878 79.5706 42.3131 79.2816 42.167 79.0186C42.0208 78.7556 41.8195 78.5445 41.563 78.3854C41.3065 78.2263 41.0175 78.1467 40.696 78.1467ZM46.9573 86.7289C46.6358 86.7289 46.3598 86.6153 46.1293 86.388C45.902 86.1574 45.7883 85.8814 45.7883 85.56C45.7883 85.2417 45.902 84.969 46.1293 84.7417C46.3598 84.5144 46.6358 84.4007 46.9573 84.4007C47.269 84.4007 47.5418 84.5144 47.7756 84.7417C48.0094 84.969 48.1263 85.2417 48.1263 85.56C48.1263 85.7743 48.0711 85.9707 47.9607 86.1493C47.8535 86.3247 47.7123 86.4659 47.5369 86.5731C47.3616 86.677 47.1684 86.7289 46.9573 86.7289ZM52.9044 76.6271V86.6023H50.7954V78.6289H50.737L48.4526 80.0609V78.1906L50.9221 76.6271H52.9044ZM55.6698 86.6023L59.805 78.4195V78.3513H54.9879V76.6271H61.9871V78.3757L57.847 86.6023H55.6698Z" fill="#27A881"/>
<path d="M255.5 59.7429C249.272 59.6461 241.336 60.8714 235.282 62.1784C213.001 66.9888 196.164 75.6787 179.057 90.6053C157.333 109.484 144.108 136.302 142.356 165.029C142.092 168.813 139.996 172.755 135.787 173.21C128.98 173.946 121.613 173.446 114.716 173.537C111.435 173.58 106.864 171.894 106.197 168.141C105.031 159.308 107.44 148.199 109.565 139.793C117.843 107.044 138.009 77.5008 163.877 56.0387C186.573 37.3145 214.516 26.0874 243.858 23.9035C254.312 23.0452 267.835 23.3052 278.276 24.0931C316.139 26.9504 356.357 47.7958 380.741 77.2169C381.224 77.7993 382 78.4995 382 78.4995C379.348 80.5642 375.445 84.1959 372.861 86.5121C366.547 92.1714 360.541 97.6356 354.029 103.082C352.389 101.257 350.854 99.0579 349.179 97.349C345.455 93.5497 341.362 89.5317 337.211 86.2128C318.181 70.997 294.336 61.7705 270.089 59.7429C268.737 59.6299 266.328 59.6739 265 59.4995C266.505 68.8268 264.46 77.9018 268 87.4995L275.5 139C275.792 140.985 276.97 142.661 277.442 144.5C277.77 145.779 280.043 150.791 280 151.5C281.009 154.143 282.227 158.626 281.701 161.358C278.149 179.824 253.578 185.172 242.654 169.745C237.551 162.54 237.602 155.232 241.132 147.365C242.281 144.804 244.056 141.723 244.5 139C244.189 136.818 247.524 117.735 248 114.5L253 76.4995C253.724 70.9832 254.93 65.2785 255.5 59.7429ZM262.242 170.451C269.668 169.4 274.821 162.506 273.727 155.086C272.632 147.665 265.708 142.553 258.294 143.691C250.941 144.82 245.88 151.675 246.966 159.034C248.051 166.393 254.876 171.494 262.242 170.451Z" fill="#24404D"/>
<path d="M243.565 138.434C244.16 137.435 245.852 123.326 246.158 121.169L250.893 89.2786C253.305 72.5721 255.577 55.0515 258.771 38.4175C258.952 37.4768 259.39 37.1222 260.16 36.6885C263.064 36.9231 264.152 51.545 264.589 54.398L273.068 111.468C274.049 118.228 275.768 143.076 279.499 147.365C280.508 150.008 282.227 158.626 281.701 161.358C278.149 179.824 253.578 185.172 242.654 169.745C237.551 162.54 237.602 155.232 241.132 147.365C242.281 144.804 243.121 141.157 243.565 138.434ZM262.242 170.451C269.668 169.4 274.821 162.506 273.727 155.086C272.632 147.665 265.708 142.553 258.294 143.691C250.941 144.82 245.88 151.675 246.966 159.034C248.051 166.393 254.876 171.494 262.242 170.451Z" fill="#23D9FE"/>
<path d="M382 78.4995C384.714 80.5934 387.273 85.5576 389.274 88.4299C403.056 108.209 412.619 130.8 415.73 154.686C417.936 171.622 416.156 174.495 399.066 173.478C394.944 173.233 389.421 173.942 385.332 173.282C384.099 173.092 382.987 172.264 382 171.5C379.331 169.393 378.692 165.918 378.724 162.72C377.962 143.053 366.652 118.066 354.029 103.082C360.541 97.6355 366.547 92.1713 372.861 86.512C375.445 84.1958 379.348 80.5642 382 78.4995Z" fill="#27A881"/>
<path d="M140.591 79.4528C137.984 81.5589 135.065 86.0717 133.142 88.9606C119.903 108.854 109.489 131.975 106.5 156C104.381 173.033 107.319 175.523 123.736 174.5C127.696 174.254 133.001 174.967 136.929 174.303C138.114 174.112 139.233 173.608 140.181 172.84C142.745 170.721 143.308 166.897 143.277 163.68C144.009 143.9 154.374 118.57 166.5 103.5C160.244 98.0216 154.975 92.7236 148.909 87.0316C146.427 84.702 143.139 81.5295 140.591 79.4528C140.395 80.2808 140.618 79.0121 140.591 79.4528Z" fill="#A62E5C"/>
<path d="M382 78.5C384.714 80.5939 387.273 85.5576 389.274 88.4299C403.056 108.209 412.619 130.8 415.73 154.686C417.936 171.622 416.156 174.495 399.066 173.478C394.944 173.233 389.421 173.942 385.332 173.282C384.099 173.092 382.934 172.591 381.947 171.827C379.278 169.72 378.692 165.918 378.724 162.72C379.733 166.007 379.154 171.56 384.376 172.095C391.222 172.798 403.876 172.61 410.226 172.306C421.437 171.769 412.795 143.118 411.461 137.213C407.753 122.189 400.577 107.376 392.404 94.2696C389.087 88.9493 385.156 84.0953 381.52 78.9766C381.492 78.5384 382.204 79.3232 382 78.5Z" fill="#2ECDD5"/>
<rect x="423.1" y="45.5667" width="119.533" height="32.8667" rx="5.1" stroke="#27A881" stroke-width="1.13333"/>
<path d="M439.19 67.3653V57.6773H441.639V67.3653H439.19ZM435.57 63.746V61.2966H445.258V63.746H435.57ZM457.264 71.2515V53.7364H458.386V71.2515H457.264ZM460.24 59.5177C460.186 58.9658 459.951 58.5371 459.536 58.2315C459.121 57.9259 458.557 57.7731 457.846 57.7731C457.362 57.7731 456.954 57.8415 456.621 57.9783C456.288 58.1106 456.033 58.2953 455.855 58.5325C455.681 58.7697 455.595 59.0388 455.595 59.3398C455.586 59.5907 455.638 59.8097 455.752 59.9967C455.871 60.1837 456.033 60.3456 456.238 60.4824C456.443 60.6147 456.68 60.731 456.949 60.8314C457.219 60.9272 457.506 61.0093 457.811 61.0777L459.07 61.3787C459.682 61.5156 460.243 61.698 460.753 61.9261C461.264 62.1541 461.707 62.4346 462.081 62.7676C462.455 63.1006 462.744 63.4929 462.95 63.9444C463.16 64.396 463.267 64.9137 463.271 65.4975C463.267 66.355 463.048 67.0985 462.614 67.728C462.186 68.3528 461.565 68.8386 460.753 69.1853C459.946 69.5274 458.972 69.6984 457.832 69.6984C456.701 69.6984 455.716 69.5251 454.876 69.1784C454.042 68.8318 453.389 68.3186 452.92 67.639C452.454 66.9548 452.21 66.1087 452.187 65.1007H455.054C455.086 65.5705 455.221 65.9628 455.458 66.2775C455.7 66.5876 456.021 66.8226 456.423 66.9822C456.829 67.1373 457.287 67.2148 457.798 67.2148C458.3 67.2148 458.735 67.1418 459.105 66.9959C459.479 66.8499 459.768 66.6469 459.974 66.387C460.179 66.127 460.281 65.8282 460.281 65.4907C460.281 65.1759 460.188 64.9114 460.001 64.697C459.818 64.4826 459.549 64.3002 459.194 64.1497C458.842 63.9991 458.411 63.8623 457.9 63.7392L456.375 63.356C455.193 63.0687 454.261 62.6194 453.576 62.0082C452.892 61.397 452.552 60.5737 452.557 59.5383C452.552 58.6899 452.778 57.9487 453.234 57.3147C453.695 56.6806 454.327 56.1857 455.129 55.83C455.932 55.4742 456.845 55.2963 457.866 55.2963C458.906 55.2963 459.814 55.4742 460.589 55.83C461.369 56.1857 461.976 56.6806 462.409 57.3147C462.843 57.9487 463.066 58.683 463.08 59.5177H460.24ZM470.3 69.6916C469.333 69.6916 468.471 69.5137 467.713 69.1579C466.961 68.8021 466.363 68.3118 465.921 67.6869C465.478 67.062 465.248 66.3459 465.23 65.5386H468.103C468.135 66.0814 468.363 66.5215 468.788 66.859C469.212 67.1966 469.716 67.3653 470.3 67.3653C470.765 67.3653 471.175 67.2627 471.531 67.0575C471.891 66.8476 472.172 66.558 472.373 66.1885C472.578 65.8145 472.681 65.3858 472.681 64.9023C472.681 64.4097 472.576 63.9763 472.366 63.6023C472.161 63.2283 471.875 62.9364 471.511 62.7266C471.146 62.5167 470.728 62.4096 470.259 62.405C469.848 62.405 469.449 62.4894 469.061 62.6581C468.678 62.8269 468.379 63.0573 468.165 63.3492L465.531 62.8771L466.194 55.4879H474.76V57.9099H468.637L468.274 61.4198H468.356C468.603 61.0731 468.975 60.7858 469.472 60.5577C469.969 60.3296 470.525 60.2156 471.141 60.2156C471.985 60.2156 472.738 60.414 473.399 60.8108C474.06 61.2077 474.583 61.7527 474.966 62.446C475.349 63.1348 475.538 63.9284 475.534 64.827C475.538 65.7712 475.319 66.6105 474.877 67.3448C474.439 68.0746 473.825 68.6493 473.036 69.069C472.252 69.484 471.34 69.6916 470.3 69.6916ZM482.779 69.6916C481.757 69.6916 480.847 69.516 480.049 69.1647C479.256 68.809 478.628 68.3209 478.168 67.7006C477.712 67.0757 477.477 66.355 477.463 65.5386H480.446C480.464 65.8807 480.576 66.1817 480.781 66.4417C480.991 66.6971 481.269 66.8955 481.616 67.0369C481.963 67.1783 482.353 67.249 482.786 67.249C483.238 67.249 483.637 67.1692 483.983 67.0096C484.33 66.8499 484.601 66.6287 484.797 66.3459C484.994 66.0631 485.092 65.737 485.092 65.3675C485.092 64.9935 484.987 64.6628 484.777 64.3754C484.572 64.0835 484.275 63.8555 483.888 63.6913C483.504 63.5271 483.048 63.445 482.519 63.445H481.212V61.2692H482.519C482.966 61.2692 483.361 61.1917 483.703 61.0366C484.049 60.8815 484.319 60.6672 484.51 60.3935C484.702 60.1153 484.797 59.7914 484.797 59.4219C484.797 59.0707 484.713 58.7628 484.544 58.4983C484.38 58.2292 484.148 58.0194 483.846 57.8688C483.55 57.7183 483.203 57.6431 482.806 57.6431C482.405 57.6431 482.038 57.716 481.705 57.862C481.372 58.0034 481.105 58.2064 480.904 58.4709C480.704 58.7355 480.597 59.0456 480.583 59.4014H477.744C477.757 58.5941 477.988 57.8825 478.435 57.2668C478.882 56.651 479.484 56.1698 480.241 55.8231C481.003 55.4719 481.862 55.2963 482.82 55.2963C483.787 55.2963 484.633 55.4719 485.359 55.8231C486.084 56.1743 486.647 56.6487 487.048 57.2462C487.454 57.8392 487.655 58.5051 487.651 59.2441C487.655 60.0286 487.411 60.6831 486.918 61.2077C486.43 61.7322 485.794 62.0652 485.01 62.2066V62.3161C486.04 62.4483 486.825 62.8064 487.363 63.3902C487.906 63.9695 488.175 64.6947 488.171 65.5659C488.175 66.3641 487.945 67.0734 487.479 67.6938C487.019 68.3141 486.383 68.8021 485.571 69.1579C484.759 69.5137 483.828 69.6916 482.779 69.6916ZM495.37 55.2963C496.091 55.2963 496.784 55.4172 497.45 55.6589C498.12 55.9007 498.718 56.2861 499.242 56.8152C499.771 57.3443 500.189 58.0467 500.494 58.9225C500.805 59.7937 500.962 60.8633 500.966 62.1313C500.966 63.3218 500.832 64.3846 500.563 65.3196C500.298 66.2501 499.917 67.0415 499.42 67.6938C498.923 68.346 498.323 68.8432 497.621 69.1853C496.918 69.5228 496.134 69.6916 495.267 69.6916C494.332 69.6916 493.507 69.5114 492.79 69.1511C492.074 68.7862 491.497 68.2913 491.059 67.6664C490.626 67.0369 490.364 66.3299 490.273 65.5454H493.194C493.308 66.0563 493.548 66.4531 493.913 66.7359C494.277 67.0141 494.729 67.1532 495.267 67.1532C496.179 67.1532 496.873 66.7564 497.347 65.9628C497.822 65.1645 498.061 64.0721 498.066 62.6855H497.97C497.76 63.096 497.477 63.4495 497.121 63.746C496.766 64.0379 496.357 64.2637 495.897 64.4233C495.441 64.583 494.955 64.6628 494.439 64.6628C493.614 64.6628 492.877 64.469 492.229 64.0813C491.582 63.6935 491.071 63.1599 490.697 62.4803C490.323 61.8006 490.136 61.0252 490.136 60.154C490.131 59.2144 490.348 58.3774 490.786 57.6431C491.224 56.9087 491.835 56.334 492.619 55.9189C493.409 55.4993 494.325 55.2917 495.37 55.2963ZM495.39 57.6225C494.93 57.6225 494.519 57.732 494.159 57.9509C493.803 58.1699 493.52 58.4641 493.31 58.8335C493.105 59.203 493.005 59.6158 493.009 60.0719C493.009 60.5326 493.11 60.9477 493.31 61.3171C493.516 61.682 493.794 61.974 494.145 62.1929C494.501 62.4073 494.907 62.5145 495.363 62.5145C495.705 62.5145 496.022 62.4506 496.314 62.3229C496.606 62.1952 496.859 62.0196 497.073 61.7961C497.292 61.568 497.463 61.3057 497.587 61.0093C497.71 60.7128 497.771 60.3981 497.771 60.0651C497.767 59.6226 497.662 59.2167 497.457 58.8472C497.251 58.4778 496.969 58.1813 496.608 57.9578C496.248 57.7343 495.842 57.6225 495.39 57.6225ZM504.186 69.6779C503.734 69.6779 503.346 69.5182 503.022 69.199C502.703 68.8751 502.544 68.4874 502.544 68.0358C502.544 67.5888 502.703 67.2057 503.022 66.8864C503.346 66.5671 503.734 66.4075 504.186 66.4075C504.623 66.4075 505.007 66.5671 505.335 66.8864C505.663 67.2057 505.828 67.5888 505.828 68.0358C505.828 68.3369 505.75 68.6128 505.595 68.8637C505.444 69.11 505.246 69.3084 505 69.4589C504.753 69.6049 504.482 69.6779 504.186 69.6779ZM512.856 69.6916C511.802 69.6916 510.865 69.5205 510.044 69.1784C509.227 68.8318 508.587 68.3597 508.121 67.7622C507.656 67.1646 507.423 66.4873 507.423 65.7301C507.423 65.1463 507.556 64.6104 507.82 64.1223C508.089 63.6297 508.454 63.2215 508.915 62.8976C509.376 62.5692 509.891 62.3594 510.461 62.2682V62.1724C509.713 62.0219 509.107 61.6592 508.641 61.0845C508.176 60.5052 507.943 59.8325 507.943 59.0662C507.943 58.3409 508.156 57.6955 508.58 57.1299C509.004 56.5598 509.586 56.1128 510.324 55.7889C511.068 55.4605 511.912 55.2963 512.856 55.2963C513.8 55.2963 514.642 55.4605 515.381 55.7889C516.124 56.1173 516.708 56.5666 517.132 57.1368C517.556 57.7024 517.771 58.3455 517.775 59.0662C517.771 59.837 517.533 60.5098 517.064 61.0845C516.594 61.6592 515.992 62.0219 515.257 62.1724V62.2682C515.818 62.3594 516.327 62.5692 516.783 62.8976C517.244 63.2215 517.609 63.6297 517.878 64.1223C518.152 64.6104 518.291 65.1463 518.295 65.7301C518.291 66.4873 518.056 67.1646 517.59 67.7622C517.125 68.3597 516.482 68.8318 515.661 69.1784C514.845 69.5205 513.91 69.6916 512.856 69.6916ZM512.856 67.5159C513.326 67.5159 513.736 67.4315 514.087 67.2627C514.439 67.0894 514.712 66.8522 514.908 66.5512C515.109 66.2456 515.21 65.8943 515.21 65.4975C515.21 65.0916 515.107 64.7335 514.902 64.4233C514.696 64.1086 514.418 63.8623 514.067 63.6844C513.716 63.502 513.312 63.4107 512.856 63.4107C512.404 63.4107 512.001 63.502 511.645 63.6844C511.289 63.8623 511.009 64.1086 510.803 64.4233C510.603 64.7335 510.502 65.0916 510.502 65.4975C510.502 65.8943 510.6 66.2456 510.797 66.5512C510.993 66.8522 511.269 67.0894 511.624 67.2627C511.98 67.4315 512.391 67.5159 512.856 67.5159ZM512.856 61.2556C513.248 61.2556 513.597 61.1757 513.903 61.0161C514.208 60.8565 514.448 60.6352 514.621 60.3524C514.794 60.0696 514.881 59.7435 514.881 59.3741C514.881 59.0092 514.794 58.6899 514.621 58.4162C514.448 58.138 514.211 57.9213 513.91 57.7662C513.609 57.6066 513.257 57.5268 512.856 57.5268C512.459 57.5268 512.108 57.6066 511.802 57.7662C511.497 57.9213 511.257 58.138 511.084 58.4162C510.915 58.6899 510.831 59.0092 510.831 59.3741C510.831 59.7435 510.917 60.0696 511.091 60.3524C511.264 60.6352 511.504 60.8565 511.809 61.0161C512.115 61.1757 512.464 61.2556 512.856 61.2556ZM525.484 69.6916C524.517 69.6916 523.655 69.5137 522.898 69.1579C522.145 68.8021 521.548 68.3118 521.105 67.6869C520.663 67.062 520.433 66.3459 520.414 65.5386H523.288C523.32 66.0814 523.548 66.5215 523.972 66.859C524.396 67.1966 524.9 67.3653 525.484 67.3653C525.95 67.3653 526.36 67.2627 526.716 67.0575C527.076 66.8476 527.357 66.558 527.557 66.1885C527.763 65.8145 527.865 65.3858 527.865 64.9023C527.865 64.4097 527.76 63.9763 527.551 63.6023C527.345 63.2283 527.06 62.9364 526.695 62.7266C526.33 62.5167 525.913 62.4096 525.443 62.405C525.033 62.405 524.634 62.4894 524.246 62.6581C523.863 62.8269 523.564 63.0573 523.35 63.3492L520.716 62.8771L521.379 55.4879H529.945V57.9099H523.822L523.459 61.4198H523.541C523.788 61.0731 524.159 60.7858 524.656 60.5577C525.154 60.3296 525.71 60.2156 526.326 60.2156C527.17 60.2156 527.922 60.414 528.584 60.8108C529.245 61.2077 529.767 61.7527 530.15 62.446C530.534 63.1348 530.723 63.9284 530.718 64.827C530.723 65.7712 530.504 66.6105 530.061 67.3448C529.624 68.0746 529.01 68.6493 528.221 69.069C527.436 69.484 526.524 69.6916 525.484 69.6916Z" fill="#27A881"/>
<rect x="326.129" y="0.427419" width="78.2419" height="24.7903" rx="3.84677" stroke="#27A881" stroke-width="0.854839"/>
<path d="M338.265 16.2124V8.90499H340.112V16.2124H338.265ZM335.535 13.4824V11.6349H342.842V13.4824H335.535ZM351.898 19.1436V5.93248H352.744V19.1436H351.898ZM354.143 10.2932C354.102 9.8769 353.924 9.5535 353.611 9.323C353.298 9.09249 352.873 8.97724 352.337 8.97724C351.972 8.97724 351.664 9.02884 351.413 9.13205C351.162 9.23183 350.969 9.37116 350.835 9.55006C350.704 9.72896 350.639 9.93195 350.639 10.159C350.632 10.3482 350.671 10.5134 350.757 10.6544C350.847 10.7955 350.969 10.9176 351.124 11.0208C351.279 11.1206 351.458 11.2083 351.661 11.284C351.864 11.3563 352.08 11.4182 352.311 11.4698L353.26 11.6969C353.721 11.8001 354.145 11.9377 354.53 12.1097C354.915 12.2817 355.249 12.4933 355.531 12.7445C355.813 12.9956 356.032 13.2915 356.186 13.6321C356.345 13.9727 356.426 14.3632 356.429 14.8036C356.426 15.4504 356.26 16.0111 355.934 16.4859C355.61 16.9572 355.142 17.3237 354.53 17.5851C353.921 17.8432 353.186 17.9722 352.326 17.9722C351.473 17.9722 350.73 17.8414 350.097 17.58C349.467 17.3185 348.975 16.9314 348.621 16.4188C348.27 15.9028 348.086 15.2646 348.069 14.5042H350.231C350.255 14.8586 350.357 15.1545 350.536 15.3919C350.718 15.6258 350.96 15.803 351.263 15.9234C351.569 16.0404 351.915 16.0989 352.3 16.0989C352.679 16.0989 353.008 16.0438 353.286 15.9337C353.568 15.8236 353.787 15.6705 353.942 15.4744C354.096 15.2783 354.174 15.053 354.174 14.7984C354.174 14.561 354.103 14.3615 353.962 14.1998C353.825 14.0381 353.622 13.9005 353.353 13.7869C353.088 13.6734 352.763 13.5702 352.378 13.4773L351.227 13.1883C350.336 12.9715 349.632 12.6327 349.116 12.1716C348.6 11.7106 348.344 11.0896 348.347 10.3087C348.344 9.66876 348.514 9.10969 348.858 8.63148C349.206 8.15326 349.682 7.77998 350.288 7.51163C350.893 7.24327 351.581 7.1091 352.352 7.1091C353.137 7.1091 353.821 7.24327 354.406 7.51163C354.994 7.77998 355.452 8.15326 355.779 8.63148C356.106 9.10969 356.274 9.6636 356.284 10.2932H354.143ZM361.694 7.1091C362.238 7.1091 362.761 7.20027 363.263 7.38261C363.769 7.56495 364.219 7.85567 364.615 8.25475C365.014 8.65384 365.329 9.18366 365.559 9.84422C365.793 10.5013 365.912 11.3081 365.915 12.2645C365.915 13.1625 365.814 13.9641 365.611 14.6694C365.411 15.3712 365.124 15.9681 364.749 16.4601C364.374 16.9521 363.922 17.3271 363.392 17.5851C362.862 17.8397 362.27 17.967 361.617 17.967C360.911 17.967 360.289 17.8311 359.749 17.5593C359.208 17.2841 358.773 16.9108 358.443 16.4395C358.116 15.9647 357.918 15.4314 357.849 14.8397H360.053C360.139 15.225 360.32 15.5243 360.595 15.7376C360.87 15.9475 361.211 16.0524 361.617 16.0524C362.305 16.0524 362.828 15.7531 363.185 15.1545C363.543 14.5524 363.724 13.7284 363.727 12.6825H363.655C363.497 12.9922 363.284 13.2588 363.015 13.4824C362.747 13.7026 362.439 13.8729 362.091 13.9933C361.747 14.1138 361.381 14.174 360.992 14.174C360.37 14.174 359.814 14.0277 359.325 13.7353C358.837 13.4429 358.452 13.0404 358.169 12.5277C357.887 12.0151 357.746 11.4302 357.746 10.7731C357.743 10.0644 357.906 9.43309 358.236 8.87919C358.567 8.32528 359.028 7.89179 359.62 7.57871C360.215 7.2622 360.906 7.10566 361.694 7.1091ZM361.71 8.8637C361.362 8.8637 361.052 8.94627 360.781 9.11141C360.512 9.27655 360.299 9.49846 360.141 9.77713C359.986 10.0558 359.91 10.3672 359.914 10.7112C359.914 11.0587 359.989 11.3718 360.141 11.6504C360.296 11.9257 360.505 12.1458 360.77 12.311C361.039 12.4727 361.345 12.5535 361.689 12.5535C361.947 12.5535 362.186 12.5054 362.406 12.409C362.626 12.3127 362.817 12.1803 362.979 12.0117C363.144 11.8397 363.273 11.6418 363.366 11.4182C363.459 11.1946 363.505 10.9572 363.505 10.706C363.502 10.3723 363.423 10.0661 363.268 9.78745C363.113 9.50878 362.9 9.28515 362.628 9.11657C362.356 8.94799 362.05 8.8637 361.71 8.8637ZM372.062 7.2536V17.8225H369.827V9.3746H369.765L367.345 10.8918V8.91015L369.961 7.2536H372.062ZM375.312 17.9567C374.971 17.9567 374.679 17.8363 374.434 17.5954C374.193 17.3512 374.073 17.0587 374.073 16.7181C374.073 16.381 374.193 16.092 374.434 15.8512C374.679 15.6103 374.971 15.4899 375.312 15.4899C375.642 15.4899 375.931 15.6103 376.179 15.8512C376.426 16.092 376.55 16.381 376.55 16.7181C376.55 16.9452 376.492 17.1534 376.375 17.3426C376.261 17.5284 376.112 17.678 375.926 17.7915C375.74 17.9016 375.535 17.9567 375.312 17.9567ZM381.851 17.967C381.057 17.967 380.35 17.838 379.73 17.58C379.115 17.3185 378.631 16.9624 378.28 16.5117C377.929 16.061 377.754 15.5501 377.754 14.979C377.754 14.5386 377.854 14.1344 378.053 13.7663C378.256 13.3947 378.531 13.0868 378.879 12.8425C379.226 12.5948 379.615 12.4366 380.045 12.3678V12.2955C379.481 12.182 379.023 11.9085 378.672 11.475C378.322 11.038 378.146 10.5306 378.146 9.95259C378.146 9.40557 378.306 8.91875 378.626 8.49214C378.946 8.06209 379.385 7.72493 379.942 7.48066C380.503 7.23295 381.139 7.1091 381.851 7.1091C382.564 7.1091 383.198 7.23295 383.756 7.48066C384.316 7.72837 384.757 8.06725 385.077 8.4973C385.397 8.92391 385.558 9.40901 385.562 9.95259C385.558 10.534 385.38 11.0415 385.025 11.475C384.671 11.9085 384.217 12.182 383.663 12.2955V12.3678C384.086 12.4366 384.47 12.5948 384.814 12.8425C385.161 13.0868 385.436 13.3947 385.639 13.7663C385.846 14.1344 385.951 14.5386 385.954 14.979C385.951 15.5501 385.773 16.061 385.423 16.5117C385.072 16.9624 384.587 17.3185 383.967 17.58C383.351 17.838 382.646 17.967 381.851 17.967ZM381.851 16.3259C382.206 16.3259 382.515 16.2623 382.78 16.135C383.045 16.0043 383.252 15.8254 383.4 15.5983C383.551 15.3678 383.627 15.1029 383.627 14.8036C383.627 14.4974 383.549 14.2273 383.394 13.9933C383.24 13.756 383.03 13.5702 382.765 13.436C382.5 13.2984 382.195 13.2296 381.851 13.2296C381.511 13.2296 381.206 13.2984 380.938 13.436C380.67 13.5702 380.458 13.756 380.303 13.9933C380.152 14.2273 380.076 14.4974 380.076 14.8036C380.076 15.1029 380.15 15.3678 380.298 15.5983C380.446 15.8254 380.654 16.0043 380.922 16.135C381.191 16.2623 381.5 16.3259 381.851 16.3259ZM381.851 11.604C382.147 11.604 382.41 11.5438 382.641 11.4234C382.871 11.3029 383.052 11.1361 383.183 10.9228C383.314 10.7095 383.379 10.4635 383.379 10.1848C383.379 9.90959 383.314 9.66876 383.183 9.46233C383.052 9.25247 382.873 9.08905 382.646 8.97208C382.419 8.85166 382.154 8.79145 381.851 8.79145C381.552 8.79145 381.287 8.85166 381.057 8.97208C380.826 9.08905 380.646 9.25247 380.515 9.46233C380.388 9.66876 380.324 9.90959 380.324 10.1848C380.324 10.4635 380.389 10.7095 380.52 10.9228C380.651 11.1361 380.831 11.3029 381.062 11.4234C381.292 11.5438 381.556 11.604 381.851 11.604ZM391.423 17.967C390.652 17.967 389.966 17.8346 389.364 17.5696C388.765 17.3013 388.292 16.9332 387.945 16.4653C387.601 15.9939 387.424 15.4504 387.413 14.8345H389.663C389.677 15.0926 389.761 15.3196 389.916 15.5157C390.074 15.7084 390.284 15.858 390.546 15.9647C390.807 16.0713 391.101 16.1247 391.428 16.1247C391.769 16.1247 392.07 16.0645 392.331 15.9441C392.593 15.8236 392.797 15.6568 392.945 15.4435C393.093 15.2302 393.167 14.9842 393.167 14.7055C393.167 14.4234 393.088 14.174 392.93 13.9572C392.775 13.737 392.551 13.565 392.259 13.4412C391.97 13.3173 391.626 13.2554 391.227 13.2554H390.241V11.6143H391.227C391.564 11.6143 391.862 11.5558 392.12 11.4388C392.381 11.3219 392.584 11.1602 392.729 10.9537C392.873 10.7439 392.945 10.4996 392.945 10.2209C392.945 9.95603 392.882 9.7238 392.754 9.52426C392.631 9.32128 392.455 9.16302 392.228 9.04949C392.004 8.93595 391.743 8.87919 391.444 8.87919C391.141 8.87919 390.864 8.93423 390.613 9.04432C390.362 9.15098 390.16 9.30407 390.009 9.50362C389.858 9.70316 389.777 9.93711 389.766 10.2055H387.625C387.635 9.59651 387.809 9.05981 388.146 8.59535C388.483 8.1309 388.937 7.76794 389.508 7.50646C390.083 7.24155 390.732 7.1091 391.454 7.1091C392.183 7.1091 392.822 7.24155 393.369 7.50646C393.916 7.77138 394.34 8.12918 394.643 8.57987C394.949 9.02712 395.101 9.52942 395.097 10.0868C395.101 10.6785 394.917 11.1722 394.545 11.5679C394.177 11.9635 393.697 12.2147 393.105 12.3213V12.4039C393.883 12.5036 394.475 12.7737 394.881 13.2141C395.29 13.651 395.493 14.198 395.49 14.8552C395.493 15.4572 395.319 15.9922 394.968 16.4601C394.621 16.928 394.141 17.2961 393.529 17.5645C392.916 17.8328 392.214 17.967 391.423 17.967Z" fill="#27A881"/>
<rect x="58.5" y="15.5" width="107" height="29" rx="4.5" stroke="#27A881"/>
<path d="M72.6967 34.6165V26.0682H74.858V34.6165H72.6967ZM69.5032 31.4229V29.2617H78.0515V31.4229H69.5032ZM88.6448 38.0455V22.5909H89.6349V38.0455H88.6448ZM91.2709 27.6921C91.2226 27.2051 91.0153 26.8268 90.6491 26.5572C90.2828 26.2875 89.7858 26.1527 89.1579 26.1527C88.7313 26.1527 88.3711 26.2131 88.0773 26.3338C87.7835 26.4505 87.5581 26.6135 87.4012 26.8228C87.2483 27.0321 87.1718 27.2695 87.1718 27.5352C87.1637 27.7565 87.21 27.9497 87.3106 28.1147C87.4153 28.2797 87.5581 28.4226 87.7393 28.5433C87.9204 28.66 88.1296 28.7627 88.3671 28.8512C88.6046 28.9357 88.8581 29.0082 89.1278 29.0685L90.2385 29.3342C90.7778 29.4549 91.2729 29.6159 91.7236 29.8171C92.1744 30.0183 92.5648 30.2659 92.8948 30.5597C93.2248 30.8535 93.4804 31.1996 93.6615 31.598C93.8466 31.9964 93.9412 32.4532 93.9452 32.9684C93.9412 33.725 93.748 34.381 93.3657 34.9364C92.9874 35.4878 92.44 35.9164 91.7236 36.2223C91.0113 36.5241 90.152 36.6751 89.1459 36.6751C88.1478 36.6751 87.2784 36.5221 86.5379 36.2163C85.8014 35.9104 85.2259 35.4576 84.8113 34.858C84.4008 34.2543 84.1855 33.5077 84.1654 32.6183H86.6949C86.723 33.0328 86.8418 33.3789 87.051 33.6566C87.2644 33.9303 87.5481 34.1375 87.9023 34.2784C88.2604 34.4152 88.6649 34.4837 89.1157 34.4837C89.5584 34.4837 89.9427 34.4193 90.2687 34.2905C90.5988 34.1617 90.8543 33.9826 91.0354 33.7532C91.2165 33.5238 91.3071 33.2602 91.3071 32.9624C91.3071 32.6847 91.2246 32.4512 91.0596 32.2621C90.8986 32.0729 90.6611 31.9119 90.3472 31.7791C90.0373 31.6463 89.657 31.5256 89.2062 31.4169L87.86 31.0788C86.8176 30.8253 85.9946 30.4289 85.3909 29.8896C84.7872 29.3503 84.4874 28.6238 84.4914 27.7102C84.4874 26.9616 84.6866 26.3076 85.089 25.7482C85.4955 25.1888 86.0529 24.7521 86.7613 24.4382C87.4696 24.1243 88.2745 23.9673 89.176 23.9673C90.0937 23.9673 90.8946 24.1243 91.5787 24.4382C92.267 24.7521 92.8022 25.1888 93.1846 25.7482C93.5669 26.3076 93.7641 26.9556 93.7762 27.6921H91.2709ZM95.4439 34.3267V32.2681L100.605 24.1364H102.38V26.9858H101.33L98.076 32.1353V32.2319H105.411V34.3267H95.4439ZM101.378 36.5V33.6989L101.426 32.7873V24.1364H103.877V36.5H101.378ZM111.668 36.669C110.815 36.669 110.054 36.5121 109.386 36.1982C108.722 35.8842 108.195 35.4516 107.805 34.9002C107.414 34.3488 107.211 33.717 107.195 33.0046H109.73C109.758 33.4835 109.96 33.8719 110.334 34.1697C110.708 34.4676 111.153 34.6165 111.668 34.6165C112.079 34.6165 112.441 34.5259 112.755 34.3448C113.073 34.1597 113.32 33.9041 113.497 33.5781C113.678 33.2481 113.769 32.8698 113.769 32.4432C113.769 32.0085 113.676 31.6262 113.491 31.2962C113.31 30.9661 113.059 30.7086 112.737 30.5234C112.415 30.3383 112.046 30.2437 111.632 30.2397C111.27 30.2397 110.918 30.3142 110.575 30.4631C110.237 30.612 109.974 30.8152 109.785 31.0728L107.46 30.6562L108.046 24.1364H115.604V26.2734H110.201L109.881 29.3704H109.954C110.171 29.0645 110.499 28.811 110.938 28.6097C111.376 28.4085 111.867 28.3079 112.411 28.3079C113.155 28.3079 113.819 28.483 114.403 28.8331C114.986 29.1832 115.447 29.6642 115.785 30.2759C116.123 30.8836 116.29 31.5839 116.286 32.3768C116.29 33.2099 116.097 33.9504 115.707 34.5984C115.32 35.2423 114.779 35.7494 114.083 36.1197C113.391 36.4859 112.586 36.669 111.668 36.669ZM122.583 23.9673C123.219 23.9673 123.831 24.074 124.418 24.2873C125.01 24.5006 125.537 24.8407 126 25.3075C126.467 25.7744 126.835 26.3942 127.105 27.1669C127.378 27.9356 127.517 28.8794 127.521 29.9982C127.521 31.0487 127.402 31.9864 127.165 32.8114C126.932 33.6325 126.595 34.3307 126.157 34.9062C125.718 35.4818 125.189 35.9205 124.569 36.2223C123.949 36.5201 123.257 36.669 122.492 36.669C121.667 36.669 120.939 36.5101 120.307 36.1921C119.675 35.8701 119.166 35.4335 118.78 34.8821C118.397 34.3267 118.166 33.7029 118.085 33.0107H120.663C120.764 33.4614 120.975 33.8116 121.297 34.0611C121.619 34.3066 122.017 34.4293 122.492 34.4293C123.297 34.4293 123.909 34.0792 124.328 33.3789C124.746 32.6746 124.957 31.7107 124.961 30.4872H124.877C124.692 30.8494 124.442 31.1613 124.128 31.4229C123.814 31.6805 123.454 31.8797 123.048 32.0206C122.645 32.1615 122.217 32.2319 121.762 32.2319C121.033 32.2319 120.383 32.0608 119.812 31.7188C119.24 31.3767 118.79 30.9058 118.46 30.3061C118.13 29.7064 117.965 29.0223 117.965 28.2536C117.961 27.4245 118.152 26.686 118.538 26.038C118.925 25.39 119.464 24.8829 120.156 24.5167C120.852 24.1464 121.661 23.9633 122.583 23.9673ZM122.601 26.0199C122.195 26.0199 121.832 26.1165 121.514 26.3097C121.2 26.5028 120.951 26.7624 120.766 27.0884C120.585 27.4144 120.496 27.7786 120.5 28.1811C120.5 28.5876 120.589 28.9538 120.766 29.2798C120.947 29.6018 121.192 29.8594 121.502 30.0526C121.816 30.2417 122.174 30.3363 122.577 30.3363C122.879 30.3363 123.158 30.2799 123.416 30.1673C123.674 30.0546 123.897 29.8996 124.086 29.7024C124.279 29.5012 124.43 29.2698 124.539 29.0082C124.648 28.7466 124.702 28.4689 124.702 28.1751C124.698 27.7847 124.605 27.4265 124.424 27.1005C124.243 26.7745 123.994 26.5129 123.676 26.3157C123.358 26.1185 122.999 26.0199 122.601 26.0199ZM130.362 36.657C129.963 36.657 129.621 36.5161 129.335 36.2344C129.054 35.9486 128.913 35.6065 128.913 35.2081C128.913 34.8137 129.054 34.4756 129.335 34.1939C129.621 33.9122 129.963 33.7713 130.362 33.7713C130.748 33.7713 131.086 33.9122 131.376 34.1939C131.665 34.4756 131.81 34.8137 131.81 35.2081C131.81 35.4737 131.742 35.7172 131.605 35.9386C131.472 36.1559 131.297 36.331 131.08 36.4638C130.863 36.5926 130.623 36.657 130.362 36.657ZM138.012 36.669C137.082 36.669 136.255 36.5181 135.531 36.2163C134.81 35.9104 134.245 35.4938 133.834 34.9666C133.424 34.4394 133.218 33.8417 133.218 33.1737C133.218 32.6585 133.335 32.1856 133.569 31.755C133.806 31.3203 134.128 30.9601 134.535 30.6744C134.941 30.3846 135.396 30.1995 135.899 30.119V30.0344C135.239 29.9016 134.704 29.5817 134.293 29.0746C133.883 28.5634 133.677 27.9698 133.677 27.2937C133.677 26.6538 133.864 26.0843 134.239 25.5852C134.613 25.0821 135.126 24.6877 135.778 24.402C136.434 24.1122 137.179 23.9673 138.012 23.9673C138.845 23.9673 139.587 24.1122 140.239 24.402C140.895 24.6918 141.411 25.0882 141.785 25.5913C142.159 26.0903 142.348 26.6578 142.352 27.2937C142.348 27.9738 142.139 28.5675 141.725 29.0746C141.31 29.5817 140.779 29.9016 140.131 30.0344V30.119C140.626 30.1995 141.075 30.3846 141.477 30.6744C141.883 30.9601 142.205 31.3203 142.443 31.755C142.684 32.1856 142.807 32.6585 142.811 33.1737C142.807 33.8417 142.6 34.4394 142.189 34.9666C141.779 35.4938 141.211 35.9104 140.487 36.2163C139.767 36.5181 138.941 36.669 138.012 36.669ZM138.012 34.7493C138.426 34.7493 138.789 34.6748 139.098 34.5259C139.408 34.373 139.65 34.1637 139.823 33.8981C140 33.6284 140.089 33.3185 140.089 32.9684C140.089 32.6102 139.998 32.2943 139.817 32.0206C139.636 31.7429 139.39 31.5256 139.08 31.3686C138.77 31.2076 138.414 31.1271 138.012 31.1271C137.613 31.1271 137.257 31.2076 136.943 31.3686C136.629 31.5256 136.382 31.7429 136.201 32.0206C136.024 32.2943 135.935 32.6102 135.935 32.9684C135.935 33.3185 136.022 33.6284 136.195 33.8981C136.368 34.1637 136.611 34.373 136.925 34.5259C137.239 34.6748 137.601 34.7493 138.012 34.7493ZM138.012 29.2255C138.358 29.2255 138.666 29.1551 138.935 29.0142C139.205 28.8733 139.416 28.6781 139.569 28.4286C139.722 28.1791 139.799 27.8913 139.799 27.5653C139.799 27.2434 139.722 26.9616 139.569 26.7202C139.416 26.4747 139.207 26.2835 138.941 26.1467C138.676 26.0058 138.366 25.9354 138.012 25.9354C137.662 25.9354 137.352 26.0058 137.082 26.1467C136.812 26.2835 136.601 26.4747 136.448 26.7202C136.299 26.9616 136.225 27.2434 136.225 27.5653C136.225 27.8913 136.301 28.1791 136.454 28.4286C136.607 28.6781 136.819 28.8733 137.088 29.0142C137.358 29.1551 137.666 29.2255 138.012 29.2255ZM144.452 34.3267V32.2681L149.613 24.1364H151.388V26.9858H150.338L147.084 32.1353V32.2319H154.419V34.3267H144.452ZM150.386 36.5V33.6989L150.434 32.7873V24.1364H152.885V36.5H150.386Z" fill="#27A881"/>
</svg>
