<svg width="44" height="44" viewBox="0 0 44 44" fill="none" xmlns="http://www.w3.org/2000/svg">
<rect width="44" height="44" rx="22" fill="#27282B"/>
<path d="M11.3758 20.749C16.7436 18.209 20.3234 16.5342 22.1152 15.7246C27.2296 13.4146 28.2916 13.0135 28.9842 13.0002C29.1377 12.9968 29.4774 13.038 29.6984 13.2335C29.8846 13.3968 29.9357 13.6191 29.9603 13.7746C29.9848 13.9302 30.0155 14.2846 29.991 14.5613C29.7147 17.7246 28.5146 25.3989 27.9039 28.9411C27.646 30.4389 27.1386 30.9411 26.6455 30.9911C25.5763 31.0978 24.765 30.2244 23.7296 29.4867C22.108 28.3322 21.1924 27.6134 19.6189 26.4878C17.8008 25.1867 18.9794 24.4712 20.0158 23.3023C20.2869 22.9967 24.9983 18.3423 25.0904 17.9201C25.1006 17.8668 25.1118 17.6701 25.0044 17.5668C24.897 17.4624 24.7384 17.4979 24.6228 17.5268C24.4598 17.5668 21.8707 19.4253 16.8555 23.1023C16.1195 23.6504 15.4538 23.9175 14.8584 23.9034C14.2005 23.8878 12.935 23.5001 11.9958 23.1679C10.8417 22.7601 9.92504 22.5456 10.0048 21.8534C10.0464 21.4934 10.5034 21.1253 11.3758 20.749Z" fill="#FEFEFE"/>
</svg>
