<svg width="24" height="24" viewBox="0 0 24 24" fill="none" xmlns="http://www.w3.org/2000/svg">
  <path d="M12 2L14.5 3.5L12 5L9.5 3.5L12 2Z" fill="#8247E5"/>
  <path d="M16.5 5.5L19 7L16.5 8.5L14 7L16.5 5.5Z" fill="#8247E5"/>
  <path d="M7.5 5.5L10 7L7.5 8.5L5 7L7.5 5.5Z" fill="#8247E5"/>
  <path d="M5 10.5L7.5 12L5 13.5L2.5 12L5 10.5Z" fill="#8247E5"/>
  <path d="M19 10.5L21.5 12L19 13.5L16.5 12L19 10.5Z" fill="#8247E5"/>
  <path d="M12 14L14.5 15.5L12 17L9.5 15.5L12 14Z" fill="#8247E5"/>
  <path d="M16.5 17.5L19 19L16.5 20.5L14 19L16.5 17.5Z" fill="#8247E5"/>
  <path d="M7.5 17.5L10 19L7.5 20.5L5 19L7.5 17.5Z" fill="#8247E5"/>
</svg>

